<svg xmlns="http://www.w3.org/2000/svg" viewBox="0 0 332.201 44.087" class="ample-logo"><g class="amp"><path d="M8.727,44.087C2.475,44.087,0,41.612,0,37.055a15.964,15.964,0,0,1,.26-2.931L1.3,28.132c1.108-6.448,4.493-9.964,11.983-9.964h37.38l.52-2.8a12.851,12.851,0,0,0,.261-2.54c0-3.06-1.693-3.451-4.689-3.451H5.731L7.359,0H50.6c7.684,0,11.332,3.321,11.332,10.028a26.225,26.225,0,0,1-.392,4.3L56.266,44.087ZM49.363,25.528H15.7c-2.736,0-3.972,1.367-4.428,3.841l-.391,2.215a10.382,10.382,0,0,0-.2,1.759c0,1.953,1.043,2.213,3.256,2.213h33.67Z"/><path d="M128.062,44.087l5.079-28.719a12.851,12.851,0,0,0,.261-2.54c0-3.06-1.693-3.451-4.624-3.451H113.539l-6.121,34.71H97.259l6.12-34.71H82.8l-6.12,34.71H66.456L74.2,0h58.35c7.751,0,11.4,3.45,11.4,10.157a24.265,24.265,0,0,1-.391,4.168l-5.275,29.762Z"/><path d="M160.678,33.147l-1.953,10.94H148.5L156.249,0h46.174c6.252,0,8.791,2.409,8.791,6.968a17.517,17.517,0,0,1-.326,3l-2.149,12.372c-1.3,7.62-4.624,10.811-12.112,10.811Zm39.6-20.775a9.069,9.069,0,0,0,.194-1.692c0-1.955-1.106-2.151-3.256-2.151H164.977l-2.865,16.282h32.235c2.736,0,3.908-1.3,4.428-4.167Z"/></g><path d="M226.712,44.087c-7.684,0-11.4-3.32-11.4-10.028a26.816,26.816,0,0,1,.456-4.3L220.98,0H231.2l-5.013,28.719a16.183,16.183,0,0,0-.327,2.669c0,3.06,1.759,3.256,4.691,3.256h32.951l-1.692,9.443Z"/><path d="M281.6,44.087c-7.748,0-11.4-3.32-11.4-10.028a26.048,26.048,0,0,1,.392-4.3l3.451-19.8C275.152,3.516,278.6,0,286.158,0h37.251c6.252,0,8.792,2.409,8.792,6.968a17.525,17.525,0,0,1-.327,3l-1.041,6.185c-1.108,6.447-4.5,9.964-11.983,9.964H281.535l-.456,2.606a15.082,15.082,0,0,0-.261,2.669c0,3.06,1.628,3.256,4.689,3.256h40.962l-1.692,9.443Zm39.726-31.715a6.951,6.951,0,0,0,.129-1.563c0-1.953-1.041-2.28-3.256-2.28H288.371c-2.733,0-3.972,1.3-4.428,3.843l-1.107,6.317h33.6c2.8,0,3.972-1.433,4.428-3.908Z"/></svg>