<svg xmlns="http://www.w3.org/2000/svg" viewBox="0 0 61.932 44.087" class="ample-letter"><path d="M8.727 44.087C2.475 44.087 0 41.612 0 37.055c-.004-.983.083-1.964.26-2.931l1.04-5.992c1.108-6.448 4.493-9.964 11.983-9.964h37.38l.52-2.8c.171-.836.259-1.687.261-2.54 0-3.06-1.693-3.451-4.689-3.451H5.731L7.359 0H50.6c7.684 0 11.332 3.321 11.332 10.028a26.154 26.154 0 0 1-.392 4.3l-5.274 29.759H8.727zm40.636-18.559H15.7c-2.736 0-3.972 1.367-4.428 3.841l-.391 2.215c-.117.58-.184 1.168-.2 1.759 0 1.953 1.043 2.213 3.256 2.213h33.67l1.756-10.028z"/></svg>