<?xml version="1.0" standalone="no"?>
<!DOCTYPE svg PUBLIC "-//W3C//DTD SVG 20010904//EN"
 "http://www.w3.org/TR/2001/REC-SVG-20010904/DTD/svg10.dtd">
<svg version="1.0" xmlns="http://www.w3.org/2000/svg"
 width="1040.000000pt" height="1040.000000pt" viewBox="0 0 1040.000000 1040.000000"
 preserveAspectRatio="xMidYMid meet">
<metadata>
Created by potrace 1.14, written by Peter Selinger 2001-2017
</metadata>
<g transform="translate(0.000000,1040.000000) scale(0.100000,-0.100000)"
fill="#000000" stroke="none">
<path d="M1235 8888 c-2 -7 -6 -29 -9 -48 -3 -19 -13 -73 -21 -120 -8 -47 -18
-100 -21 -118 -3 -19 -14 -82 -25 -140 -19 -106 -24 -135 -34 -202 -3 -19 -14
-84 -25 -145 -11 -60 -28 -162 -39 -225 -12 -63 -23 -126 -25 -140 -9 -45 -27
-154 -30 -180 -4 -26 -33 -190 -41 -225 l-4 -21 3527 -1 c1940 0 3561 -3 3602
-7 222 -20 341 -64 427 -161 42 -46 79 -113 88 -158 2 -9 6 -21 9 -25 8 -14
28 -180 27 -237 0 -34 -12 -206 -16 -235 -6 -40 -16 -108 -20 -130 -7 -42 -19
-106 -20 -110 -1 -3 -5 -25 -9 -50 -5 -25 -10 -54 -12 -65 -2 -11 -7 -33 -9
-50 -3 -16 -13 -66 -21 -110 -9 -44 -17 -90 -18 -103 -2 -12 -6 -26 -10 -29
-4 -4 -1461 -8 -3239 -8 -1777 -1 -3232 -3 -3232 -4 0 -1 -36 -4 -80 -6 -44
-3 -93 -7 -110 -9 -16 -3 -52 -8 -80 -12 -27 -3 -59 -8 -70 -10 -106 -21 -111
-22 -204 -45 -47 -12 -90 -24 -96 -27 -5 -4 -14 -7 -20 -8 -38 -6 -241 -95
-295 -129 -8 -5 -17 -10 -20 -10 -8 -1 -91 -57 -155 -104 -128 -96 -254 -232
-355 -385 -27 -41 -50 -78 -50 -81 0 -3 -11 -23 -25 -45 -14 -22 -22 -40 -18
-40 5 0 3 -4 -2 -8 -9 -6 -48 -85 -51 -102 0 -3 -10 -27 -22 -53 -12 -27 -22
-55 -22 -62 0 -8 -4 -16 -9 -19 -4 -3 -12 -20 -16 -38 -4 -18 -9 -35 -10 -38
-1 -3 -7 -25 -15 -50 -7 -25 -15 -49 -16 -55 -12 -38 -55 -221 -56 -241 -1
-13 -6 -24 -11 -24 -4 0 -6 -3 -3 -8 2 -4 1 -28 -4 -52 -13 -69 -20 -112 -25
-145 -3 -16 -7 -41 -10 -55 -2 -14 -7 -41 -10 -60 -3 -19 -8 -42 -10 -50 -2
-8 -7 -35 -10 -60 -3 -25 -10 -67 -15 -95 -5 -27 -12 -63 -15 -80 -3 -16 -8
-43 -10 -58 -16 -106 -22 -142 -25 -142 -1 0 -3 -13 -5 -30 -2 -16 -13 -82
-24 -145 -12 -63 -23 -132 -27 -154 -3 -21 -7 -46 -9 -56 -13 -66 -20 -203
-19 -370 1 -214 4 -248 38 -397 19 -83 111 -293 128 -293 4 0 8 -5 8 -11 0
-16 64 -94 125 -152 51 -49 195 -153 195 -142 0 4 12 -3 26 -14 15 -12 35 -21
45 -21 11 0 19 -4 19 -9 0 -21 300 -102 470 -127 14 -2 45 -7 70 -11 25 -4
1906 -9 4181 -10 l4136 -3 7 32 c4 18 9 50 12 71 7 45 12 70 15 77 3 6 4 13
13 80 4 30 11 71 16 90 5 19 11 57 15 84 3 27 8 52 10 55 1 3 6 24 9 46 3 22
11 64 17 93 6 30 12 68 14 85 6 49 16 98 26 124 6 16 5 22 -1 18 -6 -4 -7 2
-1 17 7 19 29 132 36 188 1 8 5 26 8 40 4 14 9 41 11 60 3 19 10 57 15 85 5
27 7 53 5 57 -3 5 -1 8 3 8 5 0 9 8 9 18 1 17 9 77 17 117 5 22 16 85 23 125
3 14 7 36 10 50 2 14 7 41 10 60 4 33 7 48 17 95 3 11 8 42 11 69 4 27 9 52
10 55 2 3 7 26 10 51 3 25 8 56 11 70 3 14 8 41 11 60 4 19 8 44 11 55 8 40
16 100 17 118 0 9 3 17 6 17 3 0 6 10 6 23 1 21 7 55 19 107 3 14 7 39 9 55 6
42 15 92 26 150 5 28 12 67 16 89 3 21 8 48 10 60 2 11 7 36 10 55 3 18 7 41
9 50 1 9 6 36 10 61 4 25 9 54 11 65 3 11 7 35 10 54 3 18 8 43 10 55 6 28 15
82 19 115 2 14 4 26 5 26 2 0 9 33 16 80 8 51 12 75 18 102 2 11 8 43 12 70 9
53 11 62 13 66 1 1 4 16 6 32 2 17 6 46 9 65 4 19 9 49 12 65 2 17 8 50 14 75
5 25 11 61 14 80 3 19 7 46 11 60 3 14 8 41 11 60 2 19 9 58 14 85 5 28 12 64
15 80 17 97 28 162 30 180 2 11 4 20 5 20 1 0 4 18 6 40 3 22 9 56 14 75 5 19
12 59 15 89 3 30 8 57 10 61 2 4 9 35 14 71 6 35 13 75 16 89 3 14 12 66 21
115 18 108 22 131 29 169 3 15 8 49 10 75 2 25 5 46 5 46 3 0 10 45 14 95 3
30 8 93 13 140 10 112 10 486 0 575 -10 83 -13 110 -21 150 -3 17 -8 48 -12
70 -6 39 -48 196 -61 225 -3 8 -7 17 -8 20 -1 3 -9 22 -18 44 -9 21 -17 41
-17 44 0 14 -75 149 -122 217 -68 101 -268 305 -298 305 -5 0 -10 5 -10 10 0
6 -5 10 -12 10 -6 0 -19 6 -27 14 -16 14 -55 37 -137 82 -88 47 -283 118 -399
144 -27 7 -59 14 -70 16 -31 7 -184 32 -235 39 -25 3 -67 8 -95 12 -27 4
-1750 9 -3828 10 -3043 3 -3778 1 -3782 -9z m7050 -4305 c-4 -16 -13 -68 -21
-118 -8 -49 -17 -101 -19 -115 -3 -14 -8 -41 -11 -60 -3 -19 -7 -42 -9 -50 -3
-8 -7 -33 -10 -55 -4 -22 -8 -47 -10 -55 -2 -8 -7 -35 -10 -60 -3 -25 -8 -52
-10 -60 -2 -8 -7 -31 -10 -50 -3 -19 -10 -60 -15 -90 -5 -30 -12 -71 -15 -90
-3 -19 -8 -42 -10 -50 -2 -8 -6 -31 -9 -50 -3 -19 -7 -44 -10 -55 -6 -32 -19
-109 -21 -125 -1 -8 -5 -31 -10 -50 -4 -19 -9 -48 -11 -65 -1 -16 -4 -40 -7
-51 -3 -12 -8 -37 -11 -55 -3 -19 -14 -83 -25 -144 -11 -60 -23 -130 -26 -155
-3 -24 -10 -47 -15 -50 -5 -3 -1322 -5 -2927 -5 -3119 1 -2994 -1 -3108 50
-66 29 -121 93 -142 165 -17 57 -22 223 -9 310 15 101 19 126 22 145 7 33 12
63 39 215 14 80 28 156 31 170 3 14 7 36 10 50 9 46 42 144 65 195 12 28 23
52 24 55 3 14 45 73 85 119 50 58 150 129 221 154 25 10 83 26 130 36 81 19
175 19 2973 20 l2888 1 -7 -27z"/>
</g>
</svg>
