<svg version="1.1" id="Layer_1" xmlns="http://www.w3.org/2000/svg" x="0" y="0" viewBox="0 0 64 64" style="enable-background:new 0 0 64 64" xml:space="preserve"><style>.st0{fill-rule:evenodd;clip-rule:evenodd;fill:#f90}</style><path class="st0" d="M56.624 56.52C50.006 61.4 40.416 64 32.16 64c-11.6 0-22.004-4.28-29.89-11.406-.6-.56-.064-1.324.68-.888C11.46 56.66 22 59.64 32.852 59.64a59.454 59.454 0 0 0 22.812-4.664c1.12-.476 2.06.734.96 1.546m2.752-3.15c-.84-1.08-5.592-.51-7.72-.26-.65.08-.748-.486-.164-.892 3.8-2.66 9.988-1.894 10.712-1s-.188 7.12-3.74 10.088c-.546.456-1.066.214-.8-.392.8-1.992 2.588-6.46 1.74-7.544M36.86 27.728c0 3.384.086 6.206-1.624 9.21-1.4 2.44-3.6 3.946-6.01 3.946-3.334 0-5.288-2.54-5.288-6.29 0-7.4 6.632-8.746 12.924-8.746v1.88m8.76 21.168c-.574.514-1.404.55-2.052.208-2.88-2.394-3.408-3.506-4.984-5.79-4.764 4.86-8.148 6.314-14.316 6.314-7.316 0-12.996-4.508-12.996-13.534 0-7.048 3.81-11.848 9.26-14.194 4.714-2.076 11.3-2.44 16.33-3v-1.1c0-2.064.16-4.508-1.06-6.29-1.05-1.6-3.08-2.26-4.874-2.26-3.31 0-6.254 1.7-6.974 5.216-.146.8-.72 1.552-1.514 1.588L14 15.11c-.708-.16-1.5-.732-1.294-1.8C14.656 3.08 23.89 0 32.148 0c4.226 0 9.748 1.124 13.08 4.324 4.226 3.946 3.824 9.21 3.824 14.94V32.8c0 4.068 1.686 5.85 3.274 8.05.55.8.672 1.72-.036 2.308a368.356 368.356 0 0 0-6.656 5.766l-.012-.024"/></svg>