<svg xmlns="http://www.w3.org/2000/svg" viewBox="0 0 128 128" style="enable-background:new 0 0 128 128" xml:space="preserve"><style>.st2{fill:url(#SVGID_00000047028594092341816990000007985680639619974788_)}</style><g id="Layer_2"><ellipse cx="64.043" cy="64" rx="63.957" ry="64" style="fill:#fa8d03"/><linearGradient id="SVGID_1_" gradientUnits="userSpaceOnUse" x1="3.124" y1="64" x2="124.962" y2="64"><stop offset="0" style="stop-color:#fda83d"/><stop offset="1" style="stop-color:#fda83d"/></linearGradient><ellipse cx="64.043" cy="64" rx="60.919" ry="60.96" style="fill:url(#SVGID_1_)"/><linearGradient id="SVGID_00000106110679222418497540000006881341240641547966_" gradientUnits="userSpaceOnUse" x1="6.01" y1="64" x2="122.075" y2="64"><stop offset="0" style="stop-color:#fba83e"/><stop offset="1" style="stop-color:#ea880b"/></linearGradient><ellipse style="fill:url(#SVGID_00000106110679222418497540000006881341240641547966_)" cx="64.043" cy="64" rx="58.033" ry="58.071"/><path d="M64.043 122.071c27.158 0 49.956-18.669 56.284-43.88-4.543-1.262-17.263-3.636-29.698 4.659-15.496 10.337-42.364 15.91-60.68 2.254-8.197-6.111-16.861-14.022-23.935-20.9.11 31.978 26.047 57.867 58.029 57.867z" style="opacity:.1;fill:#fff"/><path d="m73.006 21.891-13.065.912-32.055 66.584 18.23 11.706 7.292-20.371 28.561.456 5.013 15.05 9.419-2.736-23.395-71.601zM41.863 87.867l-2.127-.912s3.494-10.793 6.684-15.81c0 0-3.646 9.881-4.557 16.722zm26.433-51.534 6.684 22.955-15.343 3.192 8.659-26.147zM55.839 73.121v-1.216l21.268-5.169 1.823 5.321-23.091 1.064z" style="fill:#422506"/></g></svg>