<svg version="1.1" id="Layer_1" xmlns="http://www.w3.org/2000/svg" x="0" y="0" viewBox="0 0 128 128" style="enable-background:new 0 0 128 128" xml:space="preserve"><style>.st1{fill:url(#SVGID_00000120539223076481891410000005833021876713854365_)}.st2{fill:url(#SVGID_00000018923063056397701540000007122115532597847994_)}</style><radialGradient id="SVGID_1_" cx="2.081" cy="128.001" r=".125" gradientTransform="matrix(-346.4626 -399.8405 -287.7029 249.2952 37653.832 -30987.611)" gradientUnits="userSpaceOnUse"><stop offset="0" style="stop-color:#00cacc"/><stop offset="1" style="stop-color:#048fce"/></radialGradient><path d="M67.471 40.365c-2.359.274-4.159 2.19-4.326 4.606-.072 1.041-.05 1.112 2.31 7.184 5.369 13.816 6.67 17.141 6.888 17.609.53 1.133 1.275 2.2 2.206 3.157.715.734 1.186 1.129 1.983 1.662 1.401.935 2.096 1.194 7.546 2.808 5.31 1.572 8.21 2.617 10.71 3.858 3.238 1.607 5.498 3.436 6.927 5.605 1.025 1.556 1.934 4.348 2.329 7.157.154 1.098.156 3.526.002 4.519-.333 2.155-.999 3.961-2.018 5.472-.542.804-.353.669.434-.31 2.229-2.771 4.5-7.508 5.658-11.803a35.645 35.645 0 0 0 .549-16.064c-2.033-10.289-8.528-19.168-17.676-24.164a557.482 557.482 0 0 0-5.732-3.005l-1.365-.713c-.3-.158-.914-.478-1.365-.713l-2.881-1.501a3630.382 3630.382 0 0 1-5.58-2.912c-2.941-1.54-4.186-2.162-4.541-2.27-.372-.113-1.318-.259-1.555-.239l-.503.057z" style="fill-rule:evenodd;clip-rule:evenodd;fill:url(#SVGID_1_)"/><radialGradient id="SVGID_00000031204541803588468680000008627225580043612093_" cx=".965" cy="128.794" r=".125" gradientTransform="matrix(526.0025 -225.395 -375.6281 -876.6003 47906.71 113232.68)" gradientUnits="userSpaceOnUse"><stop offset="0" style="stop-color:#00bbec"/><stop offset="1" style="stop-color:#2756a9"/></radialGradient><path style="fill:url(#SVGID_00000031204541803588468680000008627225580043612093_)" d="M73.883 91.943c-.163.096-.392.236-.508.31a68.99 68.99 0 0 1-.576.358c-.735.451-2.688 1.655-4.367 2.691-1.103.681-1.267.783-2.669 1.653-.5.31-1.033.638-1.183.727-.15.09-.792.484-1.425.878-.634.393-1.739 1.076-2.457 1.517-.717.441-2 1.232-2.851 1.758l-2.487 1.534c-.517.317-.995.623-1.062.68-.099.085-4.698 2.934-7.006 4.34a15.265 15.265 0 0 1-5.856 2.062c-.966.131-2.795.131-3.758.001-2.613-.353-5.019-1.327-7.081-2.866-.809-.604-2.331-2.125-2.913-2.91a15.073 15.073 0 0 1-2.718-6.084c-.106-.517-.206-.954-.222-.97-.043-.043.035.738.175 1.759.146 1.062.456 2.598.79 3.912 2.584 10.168 9.938 18.438 19.894 22.373a34.103 34.103 0 0 0 8.907 2.196c1.183.132 4.531.185 5.765.091 5.661-.429 10.59-2.095 15.646-5.291l1.88-1.186c.584-.368 1.321-.835 1.638-1.038.317-.204.699-.444.849-.534.15-.09.45-.279.667-.419.217-.14 1.145-.727 2.062-1.304l3.669-2.317 1.26-.796.045-.029.139-.088.066-.042.927-.586 3.205-2.024c4.084-2.566 5.301-3.467 7.199-5.326.791-.775 1.984-2.097 2.043-2.265.012-.034.224-.361.471-.727 1.004-1.486 1.674-3.305 2.006-5.452.154-.993.153-3.421-.002-4.519-.299-2.123-.977-4.532-1.709-6.066-1.2-2.515-3.755-4.8-7.426-6.64-1.014-.508-2.06-.973-2.177-.967-.055.003-3.472 2.091-7.592 4.64-4.12 2.549-7.696 4.762-7.946 4.918-.25.155-.68.418-.955.584l-2.357 1.464z"/><linearGradient id="SVGID_00000134217471377970856600000004269419154658888837_" gradientUnits="userSpaceOnUse" x1="39.467" y1="128" x2="39.467" y2="17.45" gradientTransform="matrix(1 0 0 -1 0 128)"><stop offset="0" style="stop-color:#00bbec"/><stop offset="1" style="stop-color:#2756a9"/></linearGradient><path style="fill:url(#SVGID_00000134217471377970856600000004269419154658888837_)" d="m24.683 79.712.018 17.757.23 1.031c.719 3.224 1.964 5.548 4.128 7.707 1.018 1.015 1.797 1.628 2.9 2.281 2.335 1.382 4.847 2.063 7.6 2.062 2.883-.001 5.376-.72 7.946-2.291.434-.265 2.133-1.311 3.776-2.325l2.987-1.843V61.955l-.001-19.273c-.001-12.296-.023-19.598-.062-20.171-.245-3.6-1.751-6.91-4.282-9.413-.777-.768-1.441-1.281-3.419-2.642a6257.76 6257.76 0 0 1-4.003-2.757l-4.458-3.072-3.912-2.696C32.22.613 32.07.522 31.492.315a5.216 5.216 0 0 0-2.305-.286 5.051 5.051 0 0 0-4.432 3.998c-.071.337-.085 4.822-.086 29.164l-.001 28.766h-.002l.017 17.755z"/></svg>