<svg xmlns="http://www.w3.org/2000/svg" viewBox="0 0 64 64" style="enable-background:new 0 0 64 64" xml:space="preserve"><path style="fill:#f6f069" d="M0 0h64v64H0z"/><path d="M58.1 27.7c0-1.3-.2-2.7-.4-4-.9-5-2.9-9.4-6.2-13.2-.3-.4-.7-.8-1.1-1.2-.2-.2-.5-.3-.7-.1-.2.1-.3.4-.2.7 0 .1.1.1.1.2 1.2 3.3 1.9 6.8 1.9 10.3 0 .6-.1 1.3-.1 1.9-.1 1.8-.4 3.5-.8 5.2-1.4 5.5-4.2 10.2-8.4 14.1-5.4 5-11.9 7.6-19.3 7.8-1.9.1-3.7-.1-5.5-.4-1.9-.3-3.7-.8-5.5-1.5-.4-.1-.7-.1-.8.2-.2.3-.1.5.2.8.3.2.5.5.8.7 5.1 4.4 11 6.7 17.7 6.9 1.6 0 3.2-.1 4.9-.3 5.8-.9 10.8-3.4 15-7.5 5.8-5.6 8.6-12.5 8.4-20.6zM13.6 35.3c.2-.2.3-.4.1-.8v-.1c-1-2.7-1.2-5.5-.8-8.4.5-3.8 2.1-7 4.7-9.8.2-.2.3-.5.3-.8V9.6c0-.6-.2-.8-.8-.8h-5.8c-.3 0-.6.1-.8.3-3.2 3.1-4.9 6.9-5.2 11.3-.1 1.7.1 3.4.5 5 1.1 4.1 3.4 7.3 6.9 9.7.4.4.6.4.9.2z"/><path d="M24.2 23.1c.5 3.6 3.8 6.1 7.4 5.5 3.1-.5 5.4-3.2 5.4-6.4v-4.4c0-.5.1-.7.7-.7h1.5c.5 0 .7-.3.6-.7v-.2c-.6-2.5-1.7-4.8-3.2-6.8-.3-.4-.6-.5-1.1-.5h-4.3c-.3.1-.5.2-.5.5v6.5c0 .8-.2 1.7-.5 2.4-1 2.2-2.8 3.5-5.2 3.8-.5.1-.7.2-.6.7-.2.2-.2.2-.2.3z"/></svg>