<?xml version="1.0" encoding="UTF-8"?><svg xmlns="http://www.w3.org/2000/svg" viewBox="0 0 150 150"><defs><style>.b{mix-blend-mode:multiply;opacity:.07;}.c{isolation:isolate;}.d{fill:#fffedb;}.e{fill:#9d356d;}.f{fill:#d3562c;}.g{fill:#eb743b;}.h{fill:#ba478f;}</style></defs><g class="c"><g id="a"><g><polygon class="g" points="77 3.5 77 147.5 138 112.5 138 38.5 77 3.5"/><polygon class="h" points="72 3.5 11 38.5 11 112.5 72 147.5 72 63.5 71 62.5 71 57.5 72 56.5 72 44.5 71 44.5 71 23.5 72 22.5 72 3.5"/><g><g class="b"><path d="M71.97,56.54l-26.97,15.96v-11.62l26.97-16.21V22.09l-32.52,19.27s-.04,.03-.06,.05c-.09,.06-.18,.13-.26,.2-.07,.06-.14,.11-.21,.17-.07,.07-.13,.14-.19,.22-.06,.07-.13,.14-.18,.22-.06,.08-.1,.16-.15,.25-.05,.08-.1,.16-.13,.25-.04,.09-.07,.18-.1,.28-.03,.09-.06,.18-.08,.27-.02,.09-.03,.18-.04,.27-.01,.11-.03,.21-.03,.32,0,.03,0,.05,0,.08v50.58c-2.6-.42-5.29,.2-8,2-4.84,3.22-6.48,9.28-4,13,2.48,3.73,8.19,3.9,13.04,.68,2.76-1.84,5.38-4.07,5.96-6.68,.12-.33,0-2,0-2,0-.14,0-.28,0-.42v-21.58l26.97-16.15v-6.81Z"/></g><g><path class="e" d="M72,59.5l-27,16v-12l27-16V24.5l-32.52,19.68s-.04,.03-.06,.05c-.09,.06-.18,.13-.26,.2-.07,.06-.14,.11-.21,.17-.07,.07-.13,.14-.19,.22-.06,.07-.13,.14-.18,.22-.06,.08-.1,.16-.15,.25-.05,.08-.1,.16-.13,.25-.04,.09-.07,.18-.1,.28-.03,.09-.06,.18-.08,.27-.02,.09-.03,.18-.04,.27-.01,.11-.03,.21-.03,.32,0,.03,0,.05,0,.08v50.58c-2.6-.42-5.29,.2-8,2-4.84,3.22-6.48,9.28-4,13,2.48,3.73,8.19,3.9,13.04,.68,2.76-1.84,5.38-4.07,5.96-6.68,.12-.33,0-2,0-2,0-.14,0-.28,0-.42l-.03-21.4,27-16v-7Z"/><path class="d" d="M72,56.5l-27,16v-12l27-16V21.5l-32.55,19.86s-.04,.03-.06,.05c-.09,.06-.18,.13-.26,.2-.07,.06-.14,.11-.21,.17-.07,.07-.13,.14-.19,.22-.06,.07-.13,.14-.18,.22-.06,.08-.1,.16-.15,.25-.05,.08-.1,.16-.13,.25-.04,.09-.07,.18-.1,.28-.03,.09-.06,.18-.08,.27-.02,.09-.03,.18-.04,.27-.01,.11-.03,.21-.03,.32,0,.03,0,.05,0,.08v50.58c-2.6-.42-5.29,.2-8,2-4.84,3.22-6.48,9.28-4,13,2.48,3.73,8.19,3.9,13.04,.68,2.76-1.84,5.38-4.07,5.96-6.68,.12-.33,0-2,0-2,0-.14,0-.28,0-.42v-21.58l27-16v-7Z"/></g></g><g><g class="b"><path d="M94.3,95.23c.39-.64,1.07-1.03,1.82-1.03,.38,0,.75,.1,1.08,.3,1,.6,1.33,1.9,.74,2.9-.38,.65-1.06,1.03-1.82,1.03-.38,0-.75-.1-1.08-.3-.48-.29-.83-.75-.96-1.29-.14-.55-.06-1.12,.23-1.6Zm12.6,22.36c-.49,.42-1.02,.51-1.37,.51-.62,0-1.21-.27-1.61-.73-.76-.88-.65-2.22,.23-2.98,.49-.42,1.02-.51,1.37-.51,.62,0,1.2,.27,1.61,.74,.37,.43,.55,.98,.5,1.54-.04,.56-.3,1.07-.73,1.44Z"/><path d="M86,49.11c.07,.02,.14,.03,.21,.05-.07-.01-.14-.03-.21-.05Z"/><path d="M97.38,58.76c.17-.27,.39-.49,.67-.66,.33-.21,.72-.32,1.12-.32s.79,.11,1.12,.32c.99,.63,1.28,1.94,.66,2.92-.39,.62-1.06,.99-1.8,.99-.4,0-.79-.11-1.12-.33-.98-.62-1.28-1.94-.66-2.92Zm6.38-20.19c-.6,.95-1.94,1.27-2.91,.65l-.1-.06c-.91-.65-1.16-1.9-.56-2.85,.39-.61,1.05-.98,1.78-.98,.4,0,.79,.11,1.12,.33,.48,.3,.81,.78,.94,1.33,.12,.55,.03,1.11-.28,1.58Z"/><path d="M120.53,50.17c.39-.61,1.05-.98,1.78-.98,.4,0,.79,.11,1.12,.33,.48,.3,.81,.78,.94,1.33,.12,.55,.02,1.11-.28,1.58-.6,.95-1.94,1.27-2.91,.65l-.09-.06c-.92-.65-1.16-1.9-.56-2.85Zm0,23.46c.39-.61,1.05-.98,1.78-.98,.4,0,.79,.11,1.12,.33,.48,.3,.81,.77,.94,1.33,.12,.55,.02,1.11-.28,1.58-.6,.95-1.94,1.27-2.91,.65l-.09-.06c-.92-.65-1.16-1.9-.56-2.85Zm0,26.3c.39-.61,1.05-.98,1.78-.98,.4,0,.79,.11,1.12,.33,.48,.3,.81,.78,.94,1.33,.12,.55,.02,1.11-.28,1.58-.6,.95-1.94,1.27-2.91,.65l-.09-.06c-.92-.65-1.16-1.9-.56-2.85Z"/><path d="M110.18,109.6c-1.17-1.36-2.86-2.14-4.65-2.14-1.46,0-2.88,.53-3.98,1.48-1.61,1.38-2.33,3.43-2.09,5.4-1.95,.7-4.26,1.37-5.33,1.33-.82-.04-1.3-.35-2.22-.97-1.17-.79-2.42-1.51-4.15-1.85,2.94-2.76,6.01-6.83,8.58-12.83,2.06-.08,3.98-1.19,5.04-2.97,1.72-2.9,.77-6.66-2.12-8.39-.95-.57-2.03-.86-3.13-.86-2.15,0-4.16,1.14-5.26,2.99-.84,1.41-1.08,3.05-.68,4.64,.35,1.39,1.16,2.59,2.3,3.43-4.05,9.22-9.22,13.08-12.57,14.68-.13,.04-.25,.1-.36,.17-1.19,.53-2.05,.7-2.56,.81v4c.28-.03,1.88-.12,4.25-1.19,5.35-1.36,6.84-.35,8.41,.71,1.02,.69,2.29,1.55,4.26,1.66,.1,0,.2,0,.31,0,2.11,0,5.17-1.02,7.02-1.72,1.14,1.12,2.68,1.75,4.29,1.75h0c1.46,0,2.88-.52,3.98-1.48,1.24-1.06,1.99-2.55,2.12-4.18,.12-1.63-.39-3.21-1.46-4.45Zm-15.87-16.78c.39-.64,1.07-1.03,1.82-1.03,.38,0,.75,.1,1.08,.3,1,.6,1.33,1.9,.74,2.9-.38,.65-1.06,1.03-1.82,1.03-.38,0-.75-.1-1.08-.3-.48-.29-.83-.75-.96-1.29-.14-.55-.06-1.12,.23-1.6Zm12.6,22.36c-.49,.42-1.02,.51-1.37,.51-.62,0-1.21-.27-1.61-.73-.76-.88-.65-2.22,.23-2.98,.49-.42,1.02-.51,1.37-.51,.62,0,1.2,.27,1.61,.74,.37,.43,.55,.98,.5,1.54-.04,.56-.3,1.07-.73,1.44Z"/><path d="M86,46.71c.07,.02,.14,.03,.21,.05-.07-.01-.14-.03-.21-.05Z"/><path d="M107.95,33.7c-.36-1.6-1.32-2.96-2.71-3.84-.98-.62-2.11-.94-3.26-.94-2.12,0-4.05,1.07-5.17,2.85-1.35,2.14-1.22,4.8,.14,6.76-3.65,4.12-8.71,4.31-9.94,4.29-3.69-1.6-7.23-2.16-10-2.32v4c2.44,.14,5.55,.69,8.75,2.14h.01c3.45,1.57,6.33,3.93,8.61,7.05-.14,.17-.26,.35-.38,.54-1.8,2.85-.94,6.64,1.9,8.44,.98,.62,2.11,.95,3.27,.95,2.11,0,4.05-1.07,5.18-2.85,1.81-2.85,.95-6.64-1.91-8.45-1.38-.87-3.09-1.11-4.67-.75-1.54-2.15-3.32-4.02-5.34-5.57,2.52-.78,5.4-2.27,7.78-5.1,.57,.17,1.17,.27,1.77,.27,2.12,0,4.05-1.07,5.17-2.85,.88-1.38,1.16-3.01,.8-4.6Zm-10.57,22.65c.17-.27,.39-.49,.67-.66,.33-.21,.72-.32,1.12-.32s.79,.11,1.12,.32c.99,.63,1.28,1.94,.66,2.92-.39,.62-1.06,.99-1.8,.99-.4,0-.79-.11-1.12-.33-.98-.62-1.28-1.94-.66-2.92Zm6.38-20.19c-.6,.95-1.94,1.27-2.91,.65l-.1-.06c-.91-.65-1.16-1.9-.56-2.85,.39-.61,1.05-.98,1.78-.98,.4,0,.79,.11,1.12,.33,.48,.3,.81,.78,.94,1.33,.12,.55,.03,1.11-.28,1.58Z"/><path d="M116.65,74.69c.42,1.04,1.14,1.96,2.11,2.65,.07,.05,.15,.11,.28,.19,.98,.62,2.11,.95,3.27,.95,2.12,0,4.05-1.07,5.17-2.85,.88-1.38,1.16-3.01,.8-4.6-.36-1.6-1.32-2.96-2.71-3.84-.98-.62-2.11-.94-3.27-.94-.12,0-.25,0-.38,.02-.71-3.16-.92-7.77,.04-11.26,.11,.01,.22,.02,.34,.02,2.12,0,4.05-1.07,5.17-2.85,.88-1.38,1.16-3.01,.8-4.6-.36-1.6-1.32-2.96-2.71-3.84-.98-.62-2.11-.94-3.27-.94-2.11,0-4.05,1.07-5.17,2.85-1.6,2.53-1.12,5.8,1.02,7.76,.02,.02,.05,.04,.07,.06-1.35,4.52-1.15,10.32-.04,14.42-.14,.13-.29,.25-.43,.4-.23,.25-.45,.53-.63,.82-.32,.5-.55,1.03-.71,1.58-3.37,.49-5.2,1.67-6.82,2.73-2.04,1.32-3.96,2.57-9.64,2.67-1.96-.23-3.55-.18-5.29-.12-1.43,.05-2.91,.11-4.85,0-1.33-.07-2.1-.88-3.46-2.42-1.8-2.05-4.22-4.65-9.37-5.02v4c3.29,.3,4.8,1.89,6.36,3.67,1.49,1.69,3.17,3.62,6.26,3.78,2.12,.11,3.76,.05,5.21,0,2.49-.09,4.45-.16,7.86,.68,2.61,.64,12.1,9.67,14.77,14.32-.11,.14-.22,.28-.31,.43-1.74,2.75-1.03,6.38,1.62,8.25,.07,.05,.15,.1,.28,.19,.98,.62,2.11,.95,3.27,.95,2.12,0,4.05-1.07,5.17-2.85,.88-1.37,1.16-3.01,.8-4.6-.36-1.6-1.32-2.96-2.71-3.84-.98-.62-2.11-.94-3.27-.94-.53,0-1.05,.07-1.54,.2-2.56-4.19-8.65-10.46-13.19-13.79,1.81-.63,3.05-1.43,4.21-2.19,1.43-.93,2.61-1.69,4.86-2.07Zm3.88-26.92c.39-.61,1.05-.98,1.78-.98,.4,0,.79,.11,1.12,.33,.48,.3,.81,.78,.94,1.33,.12,.55,.02,1.11-.28,1.58-.6,.95-1.94,1.27-2.91,.65l-.09-.06c-.92-.65-1.16-1.9-.56-2.85Zm0,23.46c.39-.61,1.05-.98,1.78-.98,.4,0,.79,.11,1.12,.33,.48,.3,.81,.77,.94,1.33,.12,.55,.02,1.11-.28,1.58-.6,.95-1.94,1.27-2.91,.65l-.09-.06c-.92-.65-1.16-1.9-.56-2.85Zm0,26.3c.39-.61,1.05-.98,1.78-.98,.4,0,.79,.11,1.12,.33,.48,.3,.81,.78,.94,1.33,.12,.55,.02,1.11-.28,1.58-.6,.95-1.94,1.27-2.91,.65l-.09-.06c-.92-.65-1.16-1.9-.56-2.85Z"/></g><g><g><path class="f" d="M110.18,112.6c-1.17-1.36-2.86-2.14-4.65-2.14-1.46,0-2.88,.53-3.98,1.48-1.61,1.38-2.33,3.43-2.09,5.4-1.95,.7-4.26,1.37-5.33,1.33-.82-.04-1.3-.35-2.22-.97-1.17-.79-2.42-1.51-4.15-1.85,2.94-2.76,6.01-6.83,8.58-12.83,2.06-.08,3.98-1.19,5.04-2.97,1.72-2.9,.77-6.66-2.12-8.39-.95-.57-2.03-.86-3.13-.86-2.15,0-4.16,1.14-5.26,2.99-.84,1.41-1.08,3.05-.68,4.64,.35,1.39,1.16,2.59,2.3,3.43-4.05,9.22-9.22,13.08-12.57,14.68-.13,.04-.25,.1-.36,.17-1.19,.53-2.05,.7-2.56,.81v4c.28-.03,1.88-.12,4.25-1.19,5.35-1.36,6.84-.35,8.41,.71,1.02,.69,2.29,1.55,4.26,1.66,.1,0,.2,0,.31,0,2.11,0,5.17-1.02,7.02-1.72,1.14,1.12,2.68,1.75,4.29,1.75h0c1.46,0,2.88-.52,3.98-1.48,1.24-1.06,1.99-2.55,2.12-4.18,.12-1.63-.39-3.21-1.46-4.45Zm-15.87-16.78c.39-.64,1.07-1.03,1.82-1.03,.38,0,.75,.1,1.08,.3,1,.6,1.33,1.9,.74,2.9-.38,.65-1.06,1.03-1.82,1.03-.38,0-.75-.1-1.08-.3-.48-.29-.83-.75-.96-1.29-.14-.55-.06-1.12,.23-1.6Zm12.6,22.36c-.49,.42-1.02,.51-1.37,.51-.62,0-1.21-.27-1.61-.73-.76-.88-.65-2.22,.23-2.98,.49-.42,1.02-.51,1.37-.51,.62,0,1.2,.27,1.61,.74,.37,.43,.55,.98,.5,1.54-.04,.56-.3,1.07-.73,1.44Z"/><path d="M86,49.11c.07,.02,.14,.03,.21,.05-.07-.01-.14-.03-.21-.05Z"/><path class="f" d="M107.95,36.71c-.36-1.6-1.32-2.96-2.71-3.84-.98-.62-2.11-.94-3.26-.94-2.12,0-4.05,1.07-5.17,2.85-1.35,2.14-1.22,4.8,.14,6.76-3.65,4.12-8.71,4.31-9.94,4.29-3.69-1.6-7.23-2.16-10-2.32v4c2.44,.14,5.55,.69,8.75,2.14h.01c3.45,1.57,6.33,3.93,8.61,7.05-.14,.17-.26,.35-.38,.54-1.8,2.85-.94,6.64,1.9,8.44,.98,.62,2.11,.95,3.27,.95,2.11,0,4.05-1.07,5.18-2.85,1.81-2.85,.95-6.64-1.91-8.45-1.38-.87-3.09-1.11-4.67-.75-1.54-2.15-3.32-4.02-5.34-5.57,2.52-.78,5.4-2.27,7.78-5.1,.57,.17,1.17,.27,1.77,.27,2.12,0,4.05-1.07,5.17-2.85,.88-1.38,1.16-3.01,.8-4.6Zm-10.57,22.65c.17-.27,.39-.49,.67-.66,.33-.21,.72-.32,1.12-.32s.79,.11,1.12,.32c.99,.63,1.28,1.94,.66,2.92-.39,.62-1.06,.99-1.8,.99-.4,0-.79-.11-1.12-.33-.98-.62-1.28-1.94-.66-2.92Zm6.38-20.19c-.6,.95-1.94,1.27-2.91,.65l-.1-.06c-.91-.65-1.16-1.9-.56-2.85,.39-.61,1.05-.98,1.78-.98,.4,0,.79,.11,1.12,.33,.48,.3,.81,.78,.94,1.33,.12,.55,.03,1.11-.28,1.58Z"/><path class="f" d="M116.65,77.69c.42,1.04,1.14,1.96,2.11,2.65,.07,.05,.15,.11,.28,.19,.98,.62,2.11,.95,3.27,.95,2.12,0,4.05-1.07,5.17-2.85,.88-1.38,1.16-3.01,.8-4.6-.36-1.6-1.32-2.96-2.71-3.84-.98-.62-2.11-.94-3.27-.94-.12,0-.25,0-.38,.02-.71-3.16-.92-7.77,.04-11.26,.11,.01,.22,.02,.34,.02,2.12,0,4.05-1.07,5.17-2.85,.88-1.38,1.16-3.01,.8-4.6-.36-1.6-1.32-2.96-2.71-3.84-.98-.62-2.11-.94-3.27-.94-2.11,0-4.05,1.07-5.17,2.85-1.6,2.53-1.12,5.8,1.02,7.76,.02,.02,.05,.04,.07,.06-1.35,4.52-1.15,10.32-.04,14.42-.14,.13-.29,.25-.43,.4-.23,.25-.45,.53-.63,.82-.32,.5-.55,1.03-.71,1.58-3.37,.49-5.2,1.67-6.82,2.73-2.04,1.32-3.96,2.57-9.64,2.67-1.96-.23-3.55-.18-5.29-.12-1.43,.05-2.91,.11-4.85,0-1.33-.07-2.1-.88-3.46-2.42-1.8-2.05-4.22-4.65-9.37-5.02v4c3.29,.3,4.8,1.89,6.36,3.67,1.49,1.69,3.17,3.62,6.26,3.78,2.12,.11,3.76,.05,5.21,0,2.49-.09,4.45-.16,7.86,.68,2.61,.64,12.1,9.67,14.77,14.32-.11,.14-.22,.28-.31,.43-1.74,2.75-1.03,6.38,1.62,8.25,.07,.05,.15,.1,.28,.19,.98,.62,2.11,.95,3.27,.95,2.12,0,4.05-1.07,5.17-2.85,.88-1.37,1.16-3.01,.8-4.6-.36-1.6-1.32-2.96-2.71-3.84-.98-.62-2.11-.94-3.27-.94-.53,0-1.05,.07-1.54,.2-2.56-4.19-8.65-10.46-13.19-13.79,1.81-.63,3.05-1.43,4.21-2.19,1.43-.93,2.61-1.69,4.86-2.07Zm3.88-26.92c.39-.61,1.05-.98,1.78-.98,.4,0,.79,.11,1.12,.33,.48,.3,.81,.78,.94,1.33,.12,.55,.02,1.11-.28,1.58-.6,.95-1.94,1.27-2.91,.65l-.09-.06c-.92-.65-1.16-1.9-.56-2.85Zm0,23.46c.39-.61,1.05-.98,1.78-.98,.4,0,.79,.11,1.12,.33,.48,.3,.81,.77,.94,1.33,.12,.55,.02,1.11-.28,1.58-.6,.95-1.94,1.27-2.91,.65l-.09-.06c-.92-.65-1.16-1.9-.56-2.85Zm0,26.3c.39-.61,1.05-.98,1.78-.98,.4,0,.79,.11,1.12,.33,.48,.3,.81,.78,.94,1.33,.12,.55,.02,1.11-.28,1.58-.6,.95-1.94,1.27-2.91,.65l-.09-.06c-.92-.65-1.16-1.9-.56-2.85Z"/></g><g><path class="d" d="M110.18,109.6c-1.17-1.36-2.86-2.14-4.65-2.14-1.46,0-2.88,.53-3.98,1.48-1.61,1.38-2.33,3.43-2.09,5.4-1.95,.7-4.26,1.37-5.33,1.33-.82-.04-1.3-.35-2.22-.97-1.17-.79-2.42-1.51-4.15-1.85,2.94-2.76,6.01-6.83,8.58-12.83,2.06-.08,3.98-1.19,5.04-2.97,1.72-2.9,.77-6.66-2.12-8.39-.95-.57-2.03-.86-3.13-.86-2.15,0-4.16,1.14-5.26,2.99-.84,1.41-1.08,3.05-.68,4.64,.35,1.39,1.16,2.59,2.3,3.43-4.05,9.22-9.22,13.08-12.57,14.68-.13,.04-.25,.1-.36,.17-1.19,.53-2.05,.7-2.56,.81v4c.28-.03,1.88-.12,4.25-1.19,5.35-1.36,6.84-.35,8.41,.71,1.02,.69,2.29,1.55,4.26,1.66,.1,0,.2,0,.31,0,2.11,0,5.17-1.02,7.02-1.72,1.14,1.12,2.68,1.75,4.29,1.75h0c1.46,0,2.88-.52,3.98-1.48,1.24-1.06,1.99-2.55,2.12-4.18,.12-1.63-.39-3.21-1.46-4.45Zm-15.87-16.78c.39-.64,1.07-1.03,1.82-1.03,.38,0,.75,.1,1.08,.3,1,.6,1.33,1.9,.74,2.9-.38,.65-1.06,1.03-1.82,1.03-.38,0-.75-.1-1.08-.3-.48-.29-.83-.75-.96-1.29-.14-.55-.06-1.12,.23-1.6Zm12.6,22.36c-.49,.42-1.02,.51-1.37,.51-.62,0-1.21-.27-1.61-.73-.76-.88-.65-2.22,.23-2.98,.49-.42,1.02-.51,1.37-.51,.62,0,1.2,.27,1.61,.74,.37,.43,.55,.98,.5,1.54-.04,.56-.3,1.07-.73,1.44Z"/><path class="d" d="M86,46.71c.07,.02,.14,.03,.21,.05-.07-.01-.14-.03-.21-.05Z"/><path class="d" d="M107.95,33.7c-.36-1.6-1.32-2.96-2.71-3.84-.98-.62-2.11-.94-3.26-.94-2.12,0-4.05,1.07-5.17,2.85-1.35,2.14-1.22,4.8,.14,6.76-3.65,4.12-8.71,4.31-9.94,4.29-3.69-1.6-7.23-2.16-10-2.32v4c2.44,.14,5.55,.69,8.75,2.14h.01c3.45,1.57,6.33,3.93,8.61,7.05-.14,.17-.26,.35-.38,.54-1.8,2.85-.94,6.64,1.9,8.44,.98,.62,2.11,.95,3.27,.95,2.11,0,4.05-1.07,5.18-2.85,1.81-2.85,.95-6.64-1.91-8.45-1.38-.87-3.09-1.11-4.67-.75-1.54-2.15-3.32-4.02-5.34-5.57,2.52-.78,5.4-2.27,7.78-5.1,.57,.17,1.17,.27,1.77,.27,2.12,0,4.05-1.07,5.17-2.85,.88-1.38,1.16-3.01,.8-4.6Zm-10.57,22.65c.17-.27,.39-.49,.67-.66,.33-.21,.72-.32,1.12-.32s.79,.11,1.12,.32c.99,.63,1.28,1.94,.66,2.92-.39,.62-1.06,.99-1.8,.99-.4,0-.79-.11-1.12-.33-.98-.62-1.28-1.94-.66-2.92Zm6.38-20.19c-.6,.95-1.94,1.27-2.91,.65l-.1-.06c-.91-.65-1.16-1.9-.56-2.85,.39-.61,1.05-.98,1.78-.98,.4,0,.79,.11,1.12,.33,.48,.3,.81,.78,.94,1.33,.12,.55,.03,1.11-.28,1.58Z"/><path class="d" d="M116.65,74.69c.42,1.04,1.14,1.96,2.11,2.65,.07,.05,.15,.11,.28,.19,.98,.62,2.11,.95,3.27,.95,2.12,0,4.05-1.07,5.17-2.85,.88-1.38,1.16-3.01,.8-4.6-.36-1.6-1.32-2.96-2.71-3.84-.98-.62-2.11-.94-3.27-.94-.12,0-.25,0-.38,.02-.71-3.16-.92-7.77,.04-11.26,.11,.01,.22,.02,.34,.02,2.12,0,4.05-1.07,5.17-2.85,.88-1.38,1.16-3.01,.8-4.6-.36-1.6-1.32-2.96-2.71-3.84-.98-.62-2.11-.94-3.27-.94-2.11,0-4.05,1.07-5.17,2.85-1.6,2.53-1.12,5.8,1.02,7.76,.02,.02,.05,.04,.07,.06-1.35,4.52-1.15,10.32-.04,14.42-.14,.13-.29,.25-.43,.4-.23,.25-.45,.53-.63,.82-.32,.5-.55,1.03-.71,1.58-3.37,.49-5.2,1.67-6.82,2.73-2.04,1.32-3.96,2.57-9.64,2.67-1.96-.23-3.55-.18-5.29-.12-1.43,.05-2.91,.11-4.85,0-1.33-.07-2.1-.88-3.46-2.42-1.8-2.05-4.22-4.65-9.37-5.02v4c3.29,.3,4.8,1.89,6.36,3.67,1.49,1.69,3.17,3.62,6.26,3.78,2.12,.11,3.76,.05,5.21,0,2.49-.09,4.45-.16,7.86,.68,2.61,.64,12.1,9.67,14.77,14.32-.11,.14-.22,.28-.31,.43-1.74,2.75-1.03,6.38,1.62,8.25,.07,.05,.15,.1,.28,.19,.98,.62,2.11,.95,3.27,.95,2.12,0,4.05-1.07,5.17-2.85,.88-1.37,1.16-3.01,.8-4.6-.36-1.6-1.32-2.96-2.71-3.84-.98-.62-2.11-.94-3.27-.94-.53,0-1.05,.07-1.54,.2-2.56-4.19-8.65-10.46-13.19-13.79,1.81-.63,3.05-1.43,4.21-2.19,1.43-.93,2.61-1.69,4.86-2.07Zm3.88-26.92c.39-.61,1.05-.98,1.78-.98,.4,0,.79,.11,1.12,.33,.48,.3,.81,.78,.94,1.33,.12,.55,.02,1.11-.28,1.58-.6,.95-1.94,1.27-2.91,.65l-.09-.06c-.92-.65-1.16-1.9-.56-2.85Zm0,23.46c.39-.61,1.05-.98,1.78-.98,.4,0,.79,.11,1.12,.33,.48,.3,.81,.77,.94,1.33,.12,.55,.02,1.11-.28,1.58-.6,.95-1.94,1.27-2.91,.65l-.09-.06c-.92-.65-1.16-1.9-.56-2.85Zm0,26.3c.39-.61,1.05-.98,1.78-.98,.4,0,.79,.11,1.12,.33,.48,.3,.81,.78,.94,1.33,.12,.55,.02,1.11-.28,1.58-.6,.95-1.94,1.27-2.91,.65l-.09-.06c-.92-.65-1.16-1.9-.56-2.85Z"/></g></g></g></g></g></g></svg>