<svg version="1.1" id="logos" xmlns="http://www.w3.org/2000/svg" x="0" y="0" viewBox="0 0 128 128" style="enable-background:new 0 0 128 128" xml:space="preserve"><style>.st0{fill:#fff}</style><path d="M114.483 101.391c7.899-10.593 12.631-23.685 12.631-37.914 0-35.101-28.454-63.559-63.559-63.559C28.454-.082 0 28.372 0 63.473s28.454 63.559 63.559 63.559c14.176 0 27.223-4.699 37.795-12.545l-.189.227 12.961 13.368L128 114.714l-13.517-13.323z"/><circle class="st0" cx="63.559" cy="63.473" r="58.72"/><path d="M63.559 16.185c-26.119 0-47.292 21.173-47.292 47.292s21.173 47.292 47.292 47.292 47.292-21.173 47.292-47.292-21.177-47.292-47.292-47.292zm0 65.891c-10.275 0-18.603-8.327-18.603-18.603S53.284 44.87 63.559 44.87s18.603 8.327 18.603 18.603-8.331 18.603-18.603 18.603z"/><circle cx="63.559" cy="63.473" r="4.036"/><linearGradient id="SVGID_1_" gradientUnits="userSpaceOnUse" x1="19.88" y1="1327.143" x2="107.231" y2="1327.143" gradientTransform="translate(0 -1286)"><stop offset="0" style="stop-color:#000"/><stop offset=".511" style="stop-color:#dfdfdf"/><stop offset=".876" style="stop-color:#000"/></linearGradient><path d="M40.945 62.513c.502-12.055 10.432-21.675 22.61-21.675s22.108 9.621 22.61 21.675h21.066c-.511-23.693-19.863-42.741-43.68-42.741S20.39 38.824 19.88 62.513h21.065z" style="fill:url(#SVGID_1_)"/><linearGradient id="SVGID_00000056402232273207839120000017447440954651144085_" gradientUnits="userSpaceOnUse" x1="62.195" y1="1309.238" x2="96.446" y2="1339.089" gradientTransform="translate(0 -1286)"><stop offset=".003" style="stop-color:#b5b5b5;stop-opacity:0"/><stop offset=".124" style="stop-color:#969696;stop-opacity:.1632"/><stop offset=".555" style="stop-color:#2b2b2b;stop-opacity:.7421"/><stop offset=".747" style="stop-color:#000"/></linearGradient><path style="fill:url(#SVGID_00000056402232273207839120000017447440954651144085_)" d="M63.559 19.777v21.066c12.182.152 22.33 9.925 22.622 22.075h21.066c-.296-23.781-19.871-42.985-43.688-43.141z"/><linearGradient id="SVGID_00000134953324819475417330000000360663202698209724_" gradientUnits="userSpaceOnUse" x1="18.433" y1="1309.242" x2="52.68" y2="1339.09" gradientTransform="matrix(-1 0 0 1 83.36 -1286)"><stop offset=".003" style="stop-color:#b5b5b5;stop-opacity:0"/><stop offset=".124" style="stop-color:#969696;stop-opacity:.1632"/><stop offset=".555" style="stop-color:#2b2b2b;stop-opacity:.7421"/><stop offset=".747" style="stop-color:#000"/></linearGradient><path style="fill:url(#SVGID_00000134953324819475417330000000360663202698209724_)" d="M63.559 19.777v21.066c-12.182.152-22.318 9.925-22.61 22.075H19.88c.296-23.781 19.863-42.985 43.679-43.141z"/><linearGradient id="SVGID_00000153683734773127651940000001685568058580349884_" gradientUnits="userSpaceOnUse" x1="69.029" y1="1404.859" x2="101.077" y2="1383.029" gradientTransform="translate(0 -1286)"><stop offset=".003" style="stop-color:#b5b5b5;stop-opacity:0"/><stop offset=".049" style="stop-color:#a8a8a8;stop-opacity:.0514"/><stop offset=".268" style="stop-color:#6c6c6c;stop-opacity:.2982"/><stop offset=".426" style="stop-color:#3e3e3e;stop-opacity:.5252"/><stop offset=".559" style="stop-color:#1c1c1c;stop-opacity:.725"/><stop offset=".721" style="stop-color:#070707;stop-opacity:.8901"/><stop offset=".868" style="stop-color:#000"/></linearGradient><path style="fill:url(#SVGID_00000153683734773127651940000001685568058580349884_)" d="M94.699 99.048c-8.319 7.29-19.212 11.717-31.143 11.717-.049 0-.095-.004-.14-.004v11.429c.049 0 .095.004.14.004 14.797 0 28.31-5.486 38.635-14.521-2.472-2.897-5.05-5.71-7.492-8.625z"/><path class="st0" d="M121.604 114.825 89.929 83.081a5.1 5.1 0 0 0-4.081-2.043 5.115 5.115 0 0 0-5.115 5.115c0 1.376.548 2.623 1.433 3.546.058.062.124.124.185.181l32.28 31.559 6.973-6.614z"/></svg>