<svg version="1.1" id="Layer_1" xmlns="http://www.w3.org/2000/svg" x="0" y="0" viewBox="0 0 64 64" style="enable-background:new 0 0 64 64" xml:space="preserve"><style>.st0{fill:#85b046}.st1{fill:#fcfdfc}</style><path class="st0" d="M0 64V0h64v64H0zm13.132-29.54h.433c1.199.003 2.398.009 3.597.008.607-.001.809-.206.828-.816.024-.765-.053-1.517-.31-2.242-.304-.858-.801-1.562-1.646-1.968-1.677-.806-3.604-.113-4.35 1.605-.64 1.473-.645 2.988-.049 4.473 1.029 2.563 3.906 2.388 5.217 1.238a2.94 2.94 0 0 0 .546-.678c.106-.172.193-.389.04-.592-.03-.019-.052-.042-.075-.045-.618-.079-1.244-.22-1.79.242a.868.868 0 0 1-.208.118c-1.037.472-2.195-.203-2.233-1.343zm41.371-1.645c.098-.09.191-.185.295-.267.851-.678 1.833-.373 2.108.677.093.356.115.737.123 1.107.018.826.007 1.653.005 2.48 0 .191-.001.392.185.498.271.156.572.142.851.037.254-.096.259-.343.258-.576-.002-.907.006-1.813-.006-2.72a5.082 5.082 0 0 0-.09-.913c-.411-2.079-2.617-2.853-4.244-1.495-.069.057-.143.108-.167.126-.377-.231-.692-.491-1.053-.634-1.401-.558-2.845.449-3.303 1.402a1.113 1.113 0 0 0-.097.464c-.009 1.28-.01 2.56-.007 3.839.001.408.146.549.553.567.119.005.24-.003.359-.015.229-.024.363-.16.397-.383.02-.131.023-.265.023-.398-.003-1.12-.008-2.24-.012-3.359v-.441c.159-.132.294-.261.446-.366.711-.487 1.563-.24 1.871.567.112.292.168.619.18.933.026.692.008 1.386.008 2.079 0 .307-.007.614.007.92.014.286.132.409.41.452.118.018.24.018.359.011.392-.023.527-.154.54-.542.011-.32.001-.64.001-.96v-3.09zm-16.429-1.952v.501c.003 1.186-.022 2.372.015 3.557.064 2.041 2.061 3.222 3.852 2.302.473-.243.578-.558.353-1.056-.237-.525-.503-.634-1.011-.456-.222.078-.461.13-.695.143-.366.021-.577-.126-.687-.48a2.474 2.474 0 0 1-.107-.705c-.011-1.146-.006-2.291-.004-3.437 0-.104.015-.208.027-.366h.4c.426-.001.853.011 1.279-.006.456-.019.643-.225.661-.679.003-.08.003-.16 0-.24-.018-.457-.208-.661-.659-.678-.346-.013-.693-.001-1.039-.006-.208-.003-.415-.015-.645-.023-.01-.172-.023-.302-.023-.432-.003-.466-.014-.933.002-1.399.027-.793-.124-1.037-1.031-.995-.471.022-.678.224-.685.697-.009.573-.002 1.146-.002 1.719v.44c-.23 0-.414-.01-.597.002-.391.025-.573.213-.597.606a3.414 3.414 0 0 0-.001.32c.015.428.203.633.63.67.169.013.341.001.564.001zm-18.885.041v.439c0 1.026-.007 2.053.004 3.079.003.345.02.694.082 1.032.321 1.739 2.351 2.639 3.867 1.715.148-.09.303-.251.348-.41.108-.38-.081-.709-.332-.975-.221-.234-.5-.167-.782-.067a2.873 2.873 0 0 1-.696.138c-.338.03-.565-.154-.66-.465a2.56 2.56 0 0 1-.115-.704c-.011-1.159-.006-2.319-.004-3.478 0-.103.018-.205.031-.342h.455c.413-.001.827.012 1.239-.007.432-.02.621-.227.646-.655.003-.053.001-.107.001-.16-.004-.578-.191-.775-.76-.783-.426-.007-.853.001-1.279-.004-.1-.001-.2-.025-.335-.043v-.421c0-.546.005-1.093-.002-1.639-.007-.548-.201-.734-.754-.745a6.667 6.667 0 0 0-.2 0c-.552.011-.747.2-.753.75-.006.573 0 1.146-.003 1.719-.001.115-.018.229-.028.348-.296.029-.57.017-.818.092-.297.09-.37.366-.344.651.02.22.013.477.124.648.238.36.68.198 1.068.287zm12.603 4.121c-.261.263-.497.497-.73.735-.334.341-.341.607-.026.975.314.366.71.626 1.18.7.47.074.952.083 1.429.088.433.005.844-.122 1.215-.345 1.59-.955 1.603-2.729.319-3.75a6.543 6.543 0 0 0-.696-.466c-.535-.324-1.076-.639-1.615-.957-.069-.041-.139-.079-.205-.125-.338-.237-.379-.524-.127-.85a.85.85 0 0 1 .569-.333c.608-.093 1.097.119 1.506.555.124.132.243.268.326.359.272-.246.53-.458.763-.695.264-.267.28-.527.052-.821a1.936 1.936 0 0 0-.426-.417c-1.019-.689-2.126-.785-3.228-.297-.804.356-1.255 1.038-1.298 1.956-.042.891.261 1.569 1.066 2.026.786.447 1.545.944 2.307 1.433.409.263.4.66.003.933-.579.398-1.414.33-1.915-.166-.158-.157-.295-.338-.469-.538zm-25.196.003c-.262.261-.5.494-.733.731-.335.34-.342.607-.027.974.314.366.709.626 1.179.701.469.074.952.083 1.429.088.433.005.844-.122 1.215-.344 1.587-.952 1.607-2.726.323-3.749a6.801 6.801 0 0 0-.695-.467c-.535-.324-1.076-.638-1.615-.957-.069-.041-.139-.079-.205-.124-.339-.237-.383-.522-.132-.849a.842.842 0 0 1 .567-.335c.608-.094 1.097.116 1.507.552.124.132.245.267.346.377.268-.252.518-.472.749-.711.26-.269.276-.528.048-.821a1.914 1.914 0 0 0-.427-.416c-1.019-.69-2.127-.781-3.227-.294-.804.356-1.254 1.039-1.297 1.956-.042.892.262 1.568 1.066 2.025.786.447 1.545.943 2.307 1.433.408.262.4.66.003.933-.58.398-1.414.33-1.915-.166-.157-.158-.295-.339-.466-.537zm17.72-3.711h.003c0 1.359-.007 2.718.003 4.077.006.801.359 1.434 1 1.905.328.241.648.207.932-.079a2.06 2.06 0 0 0 .179-.215c.262-.347.265-.631-.058-.916-.27-.239-.343-.516-.341-.851.006-1.092.002-2.185.002-3.277 0-1.559.003-3.118-.004-4.676-.001-.196-.002-.417-.088-.582-.208-.399-.614-.291-.964-.3-.276-.007-.506.092-.598.37a1.535 1.535 0 0 0-.062.469c-.006 1.357-.004 2.716-.004 4.075zm21.243.052c-.797.107-.891.165-.888.619.001.165.031.356.119.489.181.274.52.109.79.202.006.088.015.165.015.242.001 1.278-.001 2.557.002 3.835.001.521.148.664.664.665.515.001.655-.138.667-.665.002-.08.001-.16.001-.24 0-1.145-.001-2.29.001-3.435 0-.139.017-.278.027-.438h.481c.266 0 .533.008.799-.004.344-.015.481-.153.504-.488a1.856 1.856 0 0 0-.001-.279c-.027-.306-.142-.436-.447-.455-.318-.02-.639-.006-.958-.013-.126-.003-.252-.019-.38-.03-.041-.423-.082-.794.276-1.064.298-.225.627-.357 1.003-.309.168.022.33.092.495.141.216.065.42.075.588-.113.376-.421.267-.918-.258-1.112a2.443 2.443 0 0 0-1.606-.038c-1.152.357-1.784 1.161-1.859 2.356-.005.04-.021.077-.035.134zm-17.717 1.909v2.994c0 .173-.009.347.005.519.032.387.218.576.607.605.198.015.4.012.596-.014.3-.041.441-.197.484-.495.015-.105.018-.212.019-.318.007-2.156.014-4.311.017-6.467 0-.132-.01-.267-.042-.395-.078-.309-.249-.443-.619-.441-.37.002-.806-.127-1.004.35-.058.141-.06.312-.06.469-.005 1.063-.003 2.128-.003 3.193zm.844-4.463.002-.017c.067 0 .133.003.2 0 .431-.021.626-.209.659-.638.007-.093.008-.187.003-.279-.024-.483-.215-.672-.693-.685a4.016 4.016 0 0 0-.439.004c-.342.027-.535.217-.577.55-.069.551.048.884.375.995.148.049.313.048.47.07zm14.574 8.492c.297.196.619.14.928.095.21-.03.3-.206.293-.415-.008-.255.096-.543-.197-.72a.147.147 0 0 0-.074-.026c-.311.003-.678-.15-.916.094-.247.255-.182.614-.034.972z"/><path class="st1" d="M13.132 34.46c.037 1.14 1.196 1.815 2.233 1.341.072-.033.148-.067.208-.118.546-.463 1.172-.321 1.79-.242.024.003.045.027.075.045.152.203.066.42-.04.592a2.967 2.967 0 0 1-.546.678c-1.311 1.15-4.189 1.325-5.217-1.238-.596-1.485-.591-3.001.049-4.473.746-1.718 2.674-2.411 4.35-1.605.844.406 1.342 1.11 1.646 1.968.257.725.334 1.477.31 2.242-.019.611-.221.816-.828.816-1.199.001-2.398-.005-3.597-.008-.144.002-.288.002-.433.002zm3.101-1.689c-.067-.558-.18-1.046-.49-1.464-.59-.797-1.691-.797-2.275.003-.312.427-.446.917-.471 1.461h3.236zM54.503 32.815v3.09c0 .32.01.64-.001.96-.013.388-.149.519-.54.542a1.723 1.723 0 0 1-.359-.011c-.278-.042-.396-.165-.41-.452-.015-.306-.007-.613-.007-.92-.001-.693.018-1.387-.008-2.079a2.988 2.988 0 0 0-.18-.933c-.308-.806-1.16-1.054-1.871-.567-.152.104-.287.234-.446.366v.441c.004 1.12.01 2.24.012 3.359 0 .133-.003.267-.023.398-.034.223-.168.359-.397.383a2.27 2.27 0 0 1-.359.015c-.407-.019-.552-.159-.553-.567-.004-1.28-.002-2.56.007-3.839.001-.155.03-.325.097-.464.457-.953 1.902-1.96 3.303-1.402.361.144.676.403 1.053.634.024-.018.099-.069.167-.126 1.627-1.358 3.832-.585 4.244 1.495.059.299.086.608.09.913.012.906.004 1.813.006 2.72.001.234-.004.481-.258.576-.279.105-.58.119-.851-.037-.185-.107-.185-.307-.185-.498.001-.827.012-1.653-.005-2.48-.008-.37-.03-.751-.123-1.107-.275-1.05-1.257-1.355-2.108-.677-.104.082-.197.177-.295.267zM38.074 30.863c-.223 0-.396.012-.565-.002-.427-.037-.615-.242-.63-.67a3.416 3.416 0 0 1 .001-.32c.023-.392.205-.58.597-.606.183-.012.367-.002.597-.002v-.44c0-.573-.006-1.146.002-1.719.007-.473.214-.675.685-.697.906-.042 1.058.202 1.031.995-.016.466-.004.932-.002 1.399.001.13.014.26.023.432.23.009.438.021.645.023.346.004.693-.007 1.039.006.45.017.641.221.659.678.003.08.003.16 0 .24-.018.455-.205.66-.661.679-.426.018-.852.005-1.279.006h-.4c-.012.157-.027.261-.027.366-.002 1.146-.007 2.291.004 3.437.002.236.037.48.107.705.11.354.321.501.687.48a2.59 2.59 0 0 0 .695-.143c.508-.179.774-.069 1.011.456.225.498.12.814-.353 1.056-1.791.92-3.788-.261-3.852-2.302-.037-1.185-.012-2.371-.015-3.557l.001-.5zM19.189 30.904c-.388-.089-.83.073-1.067-.29-.112-.171-.104-.427-.124-.648-.026-.285.048-.561.344-.651.248-.075.522-.062.818-.092.01-.119.027-.233.028-.348.003-.573-.003-1.146.003-1.719.006-.549.201-.739.753-.75h.2c.553.01.747.197.754.745.007.546.002 1.093.002 1.639v.421c.135.018.235.042.335.043.426.005.853-.003 1.279.004.569.009.756.206.76.783 0 .053.002.107-.001.16-.025.428-.214.635-.646.655-.412.019-.826.006-1.239.007h-.455c-.013.137-.031.239-.031.342-.002 1.16-.007 2.319.004 3.478.002.236.046.478.115.704.094.311.321.496.66.465.235-.021.475-.059.696-.138.282-.1.56-.167.782.067.251.265.439.595.332.975-.045.159-.2.32-.348.41-1.516.924-3.545.024-3.867-1.715a6.037 6.037 0 0 1-.082-1.032c-.01-1.026-.004-2.052-.004-3.079l-.001-.436zM31.792 35.025c.174.201.311.382.471.54.501.496 1.335.564 1.915.166.398-.273.406-.67-.003-.933-.762-.489-1.521-.986-2.307-1.433-.805-.458-1.108-1.135-1.066-2.026.043-.918.495-1.6 1.298-1.956 1.102-.488 2.209-.392 3.228.297.162.11.305.261.426.417.227.293.212.553-.052.821-.234.237-.491.449-.763.695-.083-.092-.203-.227-.326-.359-.409-.436-.898-.648-1.506-.555a.846.846 0 0 0-.569.333c-.253.326-.211.612.127.85.065.046.136.084.205.125.539.319 1.08.633 1.615.957.239.145.478.293.696.466 1.284 1.021 1.271 2.795-.319 3.75-.371.223-.782.35-1.215.345-.477-.006-.959-.014-1.429-.088-.47-.074-.866-.334-1.18-.7-.315-.368-.308-.634.026-.975.231-.24.467-.474.728-.737z"/><path class="st1" d="M6.596 35.028c.171.197.308.378.468.536.501.496 1.335.563 1.915.166.397-.272.406-.67-.003-.933-.762-.489-1.521-.985-2.307-1.433-.804-.457-1.108-1.134-1.066-2.025.043-.918.493-1.601 1.297-1.956 1.101-.487 2.209-.395 3.227.294.162.11.306.26.427.416.228.293.212.552-.048.821-.231.239-.482.459-.749.711-.101-.111-.222-.245-.346-.377-.41-.436-.899-.646-1.507-.552a.842.842 0 0 0-.567.335c-.251.327-.208.611.132.849.065.046.136.084.205.124.539.318 1.08.633 1.615.957.239.145.478.293.695.467 1.284 1.023 1.264 2.798-.323 3.749-.371.223-.782.35-1.215.344-.477-.006-.959-.014-1.429-.088-.47-.074-.866-.335-1.179-.701-.315-.368-.308-.634.027-.974.232-.236.469-.469.731-.73zM24.316 31.317c0-1.359-.002-2.718.003-4.077.001-.157.013-.322.062-.469.092-.278.322-.377.598-.37.35.009.756-.099.964.3.086.165.088.386.088.582.007 1.559.004 3.118.004 4.676 0 1.092.004 2.185-.002 3.277-.002.336.071.613.341.851.323.286.32.57.058.916a2.17 2.17 0 0 1-.179.215c-.283.286-.604.32-.932.079-.641-.471-.994-1.104-1-1.905-.009-1.359-.003-2.718-.003-4.077 0 .002-.001.002-.002.002zM45.559 31.369c.014-.057.03-.094.033-.133.075-1.195.707-1.999 1.859-2.356a2.443 2.443 0 0 1 1.606.038c.526.195.635.691.258 1.112-.168.188-.372.178-.588.113-.165-.049-.327-.12-.495-.141-.376-.048-.705.084-1.003.309-.358.27-.316.641-.276 1.064.128.01.254.027.38.03.319.007.64-.007.958.013.305.019.42.149.447.455.008.093.008.187.001.279-.023.334-.16.473-.504.488-.266.012-.533.003-.799.004h-.481c-.01.16-.026.299-.027.438-.002 1.145-.001 2.29-.001 3.435 0 .08.001.16-.001.24-.012.527-.152.666-.667.665-.516-.001-.663-.144-.664-.665-.003-1.278-.001-2.557-.002-3.835 0-.077-.009-.155-.015-.242-.27-.093-.608.073-.79-.202-.088-.133-.118-.324-.119-.489-.001-.454.093-.513.89-.62zM27.842 33.278c0-1.065-.002-2.129.003-3.194.001-.157.002-.328.06-.469.198-.477.635-.349 1.004-.35.37-.002.541.132.619.441.032.127.042.263.042.395-.004 2.156-.01 4.311-.017 6.467 0 .106-.004.213-.019.318-.042.298-.184.454-.484.495a2.828 2.828 0 0 1-.596.014c-.39-.029-.575-.218-.607-.605-.014-.172-.005-.346-.005-.519v-2.993zM28.686 28.815c-.157-.022-.322-.021-.469-.071-.327-.111-.444-.444-.375-.995.042-.333.235-.522.577-.55.146-.012.293-.008.439-.004.477.013.668.201.693.685.005.093.004.187-.003.279-.033.429-.228.617-.659.638-.066.003-.133 0-.2 0l-.003.018zM43.26 37.307c-.149-.358-.214-.717.034-.972.238-.244.604-.091.916-.094.025 0 .052.013.074.026.293.177.189.465.197.72.007.209-.083.384-.293.415-.308.045-.631.102-.928-.095z"/><path class="st0" d="M16.233 32.771h-3.236c.026-.545.159-1.034.471-1.461.584-.8 1.685-.8 2.275-.003.31.418.423.905.49 1.464z"/></svg>