<svg version="1.1" id="Layer_1" xmlns="http://www.w3.org/2000/svg" x="0" y="0" viewBox="0 0 128 128" style="enable-background:new 0 0 128 128" xml:space="preserve"><style>.st1{fill:url(#SVGID_00000080203476547267525120000014630015020868787104_)}</style><linearGradient id="SVGID_1_" gradientUnits="userSpaceOnUse" x1="65.011" y1=".383" x2="65.011" y2="125.452"><stop offset="0" style="stop-color:#ff01ad"/><stop offset="1" style="stop-color:#ff2945"/></linearGradient><path d="M127.617 57.044a69.577 69.577 0 0 0-1.341-7.818c-.051-.22-.133-.433-.222-.716-.249.127-.439.215-.62.317a28.996 28.996 0 0 1-4.125 1.922c-3.739 1.392-7.586 1.865-11.544 1.305-2.775-.393-5.423-1.229-7.987-2.345-3.279-1.428-6.369-3.202-9.319-5.208-3.43-2.333-6.804-4.748-10.198-7.133-1.785-1.254-3.558-2.525-5.344-3.778-3.457-2.425-7.313-3.769-11.499-4.204-2.636-.274-5.257-.188-7.828.495-5.213 1.383-8.728 4.67-10.538 9.71-1.219 3.393-.56 6.526 1.78 9.275a15.89 15.89 0 0 0 1.686 1.697c2.191 1.897 4.727 3.21 7.407 4.263 2.704 1.062 5.504 1.82 8.307 2.567 3.29.877 6.589 1.723 9.818 2.813 3.853 1.302 7.545 2.938 10.916 5.242 4.116 2.814 7.556 6.264 9.912 10.695 3.036 5.711 3.634 11.677 1.673 17.86-1.503 4.74-4.27 8.673-7.891 12.025-6.226 5.762-13.674 8.583-22.074 9.028a38.986 38.986 0 0 1-10.621-.901c-8.582-1.922-15.807-6.121-21.554-12.812-2.111-2.458-3.979-5.093-5.783-7.779-1.834-2.732-3.65-5.478-5.532-8.177-1.418-2.033-3.009-3.933-4.947-5.504-3.535-2.865-7.55-3.823-11.998-2.902-2.048.424-3.885 1.364-5.626 2.5-.575.375-.574.378-.4 1.025 1.437 5.369 3.52 10.475 6.314 15.279 6.757 11.617 16.194 20.354 28.335 26.13 8.26 3.93 16.994 5.904 26.137 6.075 2.535.047 5.062-.07 7.585-.324a61.534 61.534 0 0 0 9.135-1.602c11.681-2.991 21.739-8.807 30.17-17.416 6.244-6.376 10.933-13.756 14.099-22.101a62.853 62.853 0 0 0 4.013-19.178c.176-3.445.089-6.89-.296-10.325z" style="fill:url(#SVGID_1_)"/><linearGradient id="SVGID_00000132791517917622731010000014172042663176818071_" gradientUnits="userSpaceOnUse" x1="60.222" y1=".383" x2="60.222" y2="125.452"><stop offset="0" style="stop-color:#ff01ad"/><stop offset="1" style="stop-color:#ff2945"/></linearGradient><path style="fill:url(#SVGID_00000132791517917622731010000014172042663176818071_)" d="M16.694 62.07c3.586.715 6.955 1.979 10.046 3.957 3.218 2.06 5.921 4.679 8.345 7.606 2.365 2.856 4.41 5.941 6.443 9.033 1.616 2.458 3.221 4.922 5.032 7.245 1.697 2.177 3.55 4.2 5.865 5.739 5.64 3.747 11.81 5.075 18.492 3.963 3.57-.594 6.706-2.107 9.375-4.558 1.626-1.494 2.96-3.2 3.731-5.299.557-1.518.718-3.063.298-4.644-.452-1.699-1.376-3.126-2.56-4.397-1.887-2.026-4.162-3.51-6.655-4.672-2.353-1.097-4.82-1.884-7.316-2.581-3.393-.947-6.801-1.84-10.185-2.815-3.845-1.108-7.561-2.55-11.046-4.541-3.74-2.137-7.085-4.753-9.769-8.147-4.67-5.903-6.365-12.577-4.919-19.966 1.279-6.536 4.574-11.956 9.58-16.318 5.636-4.91 12.321-7.152 19.698-7.518a38.453 38.453 0 0 1 9.244.671c4.989.966 9.673 2.719 13.909 5.535 3.032 2.016 5.968 4.177 8.938 6.286 3.399 2.413 6.765 4.873 10.33 7.043 1.849 1.125 3.745 2.16 5.813 2.837 1.692.554 3.415.766 5.182.437 2.183-.406 4.029-1.509 5.78-2.804.044-.032.068-.09.099-.133C107.949 9.279 76.268-7.463 43.619 3.346 32.41 7.057 22.984 13.515 15.318 22.484 7.285 31.882 2.406 42.731.59 54.964c-.422 2.84-.775 8-.483 8.75.191-.07.387-.137.579-.212 3.32-1.287 6.756-1.98 10.319-1.999a28.38 28.38 0 0 1 5.689.567z"/></svg>