<svg xmlns="http://www.w3.org/2000/svg" viewBox="0 0 512 512">
<style type="text/css">
	.st0{fill:url(#rect4550_1_);}
	.st1{fill:url(#path4028_1_);}
	.st2{opacity:0.4;fill:#FFFFFF;}
</style>
<g id="path2997" class="disc">
	<path class="disc" d="M256.3,0C115.1,0,0.6,114.6,0.6,256s114.5,256,255.7,256S512,397.4,512,256S397.5,0,256.3,0L256.3,0z
		 M256.3,244.6c6.3,0,11.4,5.1,11.4,11.4c0,6.3-5.1,11.4-11.4,11.4s-11.4-5.1-11.4-11.4C244.9,249.7,250,244.6,256.3,244.6z"/>
	<path class="disc" d="M256.3,0C115.1,0,0.6,114.6,0.6,256s114.5,256,255.7,256S512,397.4,512,256S397.5,0,256.3,0L256.3,0z
		 M256.3,244.6c6.3,0,11.4,5.1,11.4,11.4c0,6.3-5.1,11.4-11.4,11.4s-11.4-5.1-11.4-11.4C244.9,249.7,250,244.6,256.3,244.6z"/>
</g>
<path class="label" d="M256,166.8c-49.2,0-89.1,39.9-89.1,89.2c0,49.2,39.9,89.2,89.1,89.2s89.1-40,89.1-89.2
	C345.1,206.8,305.2,166.8,256,166.8z M256,266c-5.5,0-10-4.5-10-10c0-5.5,4.5-10,10-10c5.5,0,10,4.5,10,10
	C266,261.5,261.5,266,256,266z"/>
<linearGradient id="rect4550_1_" gradientUnits="userSpaceOnUse" x1="-451.0443" y1="1670.1771" x2="763.6557" y2="860.1171" gradientTransform="matrix(0.4748 0 0 -0.4753 -105.2623 544.4059)">
	<stop  offset="0" style="stop-color:#FFFFFF"/>
	<stop  offset="1" style="stop-color:#FFFFFF;stop-opacity:0"/>
</linearGradient>
<path id="rect4550" class="st0" d="M256.8,2.9C186,2.9,122,32.1,76.2,79v0c42.5,73.6,111.7,117.4,175.2,165.6
	c-12.7-57.1,5.1-227.4,56.7-227.5C372.4,30.1,431.6,68,470.2,127.4c64,98.8,38.7,225.6-37.4,308.4c0.1,0.2,0.2,0.3,0.3,0.5h0
	c46.9-45.9,76.1-109.9,76.1-180.8C509.1,116,396.2,2.9,256.8,2.9L256.8,2.9z"/>
<linearGradient id="path4028_1_" gradientUnits="userSpaceOnUse" x1="79.6956" y1="1139.9596" x2="1294.3955" y2="329.8995" gradientTransform="matrix(-0.4748 0 0 0.4753 866.3322 218.9745)">
	<stop  offset="0" style="stop-color:#FFFFFF"/>
	<stop  offset="1" style="stop-color:#FFFFFF;stop-opacity:0"/>
</linearGradient>
<path id="path4028" class="st1" d="M252.3,508.5c70.8,0,134.8-29.2,180.6-76.1v0c-42.5-73.6-111.7-117.4-175.2-165.6
	c12.7,57.1-5.1,227.4-56.7,227.5C136.7,481.3,77.5,443.4,39,384C-25,285.2,0.3,158.4,76.4,75.6c-0.1-0.2-0.2-0.3-0.3-0.5h0
	C29.1,121,0,185,0,255.9C0,395.4,113,508.5,252.3,508.5L252.3,508.5z"/>
<path id="path4103" class="st2" d="M256.3,174c-45.2,0-81.9,36.7-81.9,82c0,45.3,36.7,82,81.9,82s81.9-36.7,81.9-82
	S301.5,174,256.3,174z M256.3,178.4c42.8,0,77.5,34.7,77.5,77.6s-34.7,77.6-77.5,77.6s-77.5-34.7-77.5-77.6S213.5,178.4,256.3,178.4
	z"/>
<path class="lines" d="M134.5,44.8L134.5,44.8C134.5,44.7,134.5,44.7,134.5,44.8C134.5,44.7,134.5,44.7,134.5,44.8z M440.8,98.2
	c8.3,7.9,23.7,34.2,25,33.2C418,48.7,318.4,0.4,223.9,14.3c-31.4,4.2-62,14.6-89.4,30.5c14.8-6,32.2-16,49.2-20.6
	C274.1-5.4,379.9,25.1,440.8,98.2z M139.7,53.8C139.7,53.8,139.7,53.8,139.7,53.8C139.7,53.8,139.7,53.8,139.7,53.8L139.7,53.8z
	 M456.8,136.8C410.6,56.7,313.7,10.5,222.5,25c-29.1,4.3-57.3,14.1-82.8,28.8c14.1-5.6,30.8-15.3,47.1-19.6
	c87.4-28.6,189.9,1.6,247.9,73C441.9,114.3,454.8,136.7,456.8,136.8z M383.5,73c-69-49.1-165.6-53.3-238.6-10.1
	c27.5-13.4,60.2-26.2,92.7-28.1c83.8-8,169.5,36.8,210.8,110.2C435.1,117.2,409.7,91.5,383.5,73z M144.9,62.8
	C144.9,62.8,144.9,62.8,144.9,62.8C144.9,62.8,144.9,62.8,144.9,62.8L144.9,62.8z M377.6,81.5c-65.9-46.8-157.8-50.7-227.5-9.6l0,0
	c26.2-12.8,57.4-25,88.3-26.8c79.8-7.6,161.6,35.1,200.9,105.1C426.8,123.7,402.5,99.2,377.6,81.5z M155.3,80.9
	C155.3,80.9,155.3,80.9,155.3,80.9C155.3,80.9,155.3,80.9,155.3,80.9L155.3,80.9z M430.3,155.4c-11.9-25.2-35-48.4-58.7-65.3
	C309,45.6,221.5,41.8,155.3,80.9c24.9-12,54.6-23.8,84-25.4C315.2,48.3,392.9,88.9,430.3,155.4z M240.2,65.9
	c72-6.9,145.6,31.6,181,94.7c-11-23.8-33.2-46-55.6-62C306.3,56.4,223.3,52.9,160.5,90l0,0C184.1,78.8,212.3,67.4,240.2,65.9z
	 M165.8,99C165.8,99,165.8,99,165.8,99C165.8,99,165.8,99,165.8,99L165.8,99z M359.7,107.2C303.5,67.3,225.1,64,165.8,99
	c22.2-10.5,49-21.3,75.3-22.7c68-6.5,137.6,29.9,171.2,89.5C402,143.3,380.9,122.3,359.7,107.2z M353.8,115.8
	C300.8,78.2,226.9,75,171,108l0,0c20.9-9.6,46.2-20.1,71-21.3c64.1-6.1,129.7,28.1,161.3,84.3C393.8,149.9,373.7,130,353.8,115.8z
	 M347.8,124.4c-49.7-35.3-119.1-38.3-171.6-7.3c19.6-8.8,43.3-18.8,66.6-19.9c60.1-5.8,121.7,26.4,151.3,79.1
	C385.5,156.4,366.4,137.7,347.8,124.4z M176.2,117.1C176.2,117.1,176.2,117.1,176.2,117.1C176.2,117.1,176.2,117.1,176.2,117.1
	L176.2,117.1z M341.8,132.9c-46.5-33-111.3-35.8-160.4-6.8c18.3-8.2,40.5-17.6,62.3-18.6c56.2-5.4,113.7,24.7,141.4,74
	C377.2,162.9,359.2,145.4,341.8,132.9z M181.4,126.1C181.4,126.1,181.4,126.1,181.4,126.1C181.4,126.1,181.4,126.1,181.4,126.1
	L181.4,126.1z M335.9,141.5c-43.2-30.7-103.6-33.3-149.3-6.3l0,0c16.9-7.4,37.7-16.4,58-17.2c52.3-5,105.8,23,131.5,68.8
	C368.9,169.5,352,153.1,335.9,141.5z M329.9,150.1c-40-28.4-95.8-30.8-138.1-5.9h0c15.6-6.5,34.9-15.1,53.7-15.8
	c48.3-4.6,97.8,21.2,121.6,63.6C360.7,176,344.8,160.8,329.9,150.1z M197.1,153.3c0,0,0.1-0.1,0.1-0.1
	C197.1,153.2,197.1,153.2,197.1,153.3L197.1,153.3z M324,158.6c-36.7-26.1-87.9-28.3-126.8-5.5c14.2-5.8,32-13.9,49.2-14.4
	c44.4-4.3,89.8,19.5,111.7,58.4C352.5,182.6,337.6,168.5,324,158.6z M202.3,162.3L202.3,162.3c26.6-13.3,62.3-19,91.9-6.6
	c23.5,7.9,42.7,27.5,55.7,46.2C322,151,251.8,132.2,202.3,162.3z M207.5,171.3C207.5,171.3,207.5,171.3,207.5,171.3
	C207.5,171.3,207.5,171.3,207.5,171.3L207.5,171.3z M290.5,165.5c21.2,7,38.5,25.1,50.3,41.6c-25.2-46-88.6-63-133.4-35.8
	C231.5,159.5,263.8,154.2,290.5,165.5z M45.3,378C45.3,378,45.3,378,45.3,378C45.3,378,45.3,378,45.3,378L45.3,378z M71.8,413.8
	c-10-10.7-18.2-25.7-26.5-35.8c46.8,83.4,145.8,132.8,240.5,120.1c32.4-3.9,64-14.5,92.3-30.9c-14.8,6-32.2,16-49.2,20.6
	C238.5,517.4,132.7,486.9,71.8,413.8z M284.5,487.7c31-3.8,61.3-13.9,88.4-29.6c-14.1,5.7-30.8,15.3-47.1,19.7
	C239.3,506.2,137.9,477,79.7,407c-9.6-10.2-17.4-24.6-25.3-34.3l0,0C99.1,452.5,193.9,499.9,284.5,487.7z M302,474.2
	c22.5-5.1,47.6-13.1,65.2-25.9c-81.9,49-194.3,36-262.8-30.5c-16.2-14.3-29.4-34.1-41-50.3l0,0C109.2,449.6,210.4,495,302,474.2z
	 M304.9,462.9c19.6-5.1,42-12.2,57.1-23.7c-78,46.7-185.2,34.3-250.5-29.1c-15.4-13.6-28-32.6-39.1-47.9
	C116.9,442.1,216.3,485.3,304.9,462.9z M72.4,362.3C72.4,362.3,72.4,362.3,72.4,362.3C72.4,362.3,72.4,362.3,72.4,362.3L72.4,362.3z
	 M307.3,451.6c16.9-4.9,36.7-11.3,49.5-21.4c-75.6,45.3-180,32.1-241.6-31c-13.2-12-23.9-29.2-33.7-42.1
	C124.5,434.5,222,475.4,307.3,451.6z M81.4,357.1L81.4,357.1C81.4,357.1,81.5,357.1,81.4,357.1C81.5,357.1,81.4,357.1,81.4,357.1z
	 M309.2,440.2c14.4-4.6,31.7-10.2,42.4-19c-73,43.9-174.3,29.7-232.4-32.7c-11.2-10.6-20.2-25.9-28.7-36.6
	C132.1,426.8,227.3,465.3,309.2,440.2z M306.3,430.2c13.6-4.4,30.2-9.7,40.1-18.1c-69,41.5-164.8,28.1-219.6-30.9
	c-10.6-10-19.1-24.6-27.2-34.6C138.8,417.5,228.8,453.9,306.3,430.2z M99.5,346.6L99.5,346.6C99.5,346.6,99.5,346.6,99.5,346.6
	C99.5,346.6,99.5,346.6,99.5,346.6z M307.4,419c9.6-0.9,49.6-23.3,22.7-10.1c-69,34.9-159.9,14.1-206.8-47.4
	c-5.5-5.8-9.9-15.8-14.8-20.1C146.2,409.5,233.6,443.6,307.4,419z M108.5,341.4C108.5,341.4,108.5,341.4,108.5,341.4L108.5,341.4
	C108.5,341.4,108.5,341.4,108.5,341.4z M308,407.8c8.9-1.4,42.1-20.5,17.6-8.3c-64.7,32.8-150.1,13.3-194.1-44.5
	c-5.2-5.5-9.2-14.8-13.9-18.8C153.6,401.4,238,433.2,308,407.8z M117.6,336.2C117.6,336.2,117.6,336.2,117.6,336.2
	C117.6,336.2,117.6,336.2,117.6,336.2L117.6,336.2z M304.6,397.9c11.9-2.8,39.6-19.7,13.1-6.3c-63.5,30.3-146.1,7.1-184.5-51.9
	c-2.4-1.2-4-9.9-6.7-8.8l0,0C160.3,391.9,239.2,421.6,304.6,397.9z M304.4,386.9c11.5-3.4,31.7-16.5,9-4.7
	c-59.1,28.2-135.9,6.6-171.6-48.3c-2.2-1.1-3.7-9.3-6.2-8.1h0C167.5,383.5,243,410.9,304.4,386.9z M303.8,376
	c11.4-3.9,24.1-13.3,5.4-3.3c-57.6,27.7-133,3.4-163.7-52.6l-0.8,0.5h0l0,0C174.6,375,246.5,400.1,303.8,376z M171.8,304.9
	c24.9,46,88.8,63.1,133.3,35.7c-21.3,10.2-49.3,16.5-73.9,8.8C206.2,343.6,185.1,324.4,171.8,304.9z M171.8,304.8
	C171.8,304.8,171.8,304.9,171.8,304.8C171.8,304.9,171.8,304.8,171.8,304.8L171.8,304.8z M378.1,467.2
	C378.1,467.2,378.1,467.2,378.1,467.2C378.1,467.2,378.1,467.2,378.1,467.2L378.1,467.2z M498.8,232.4
	c-3.3-34.6-14.1-68.4-31.5-98.4c6,14.8,16,32.2,20.5,49.3c29.2,89.5-0.2,194.3-71.7,255.5c-11.3,10.8-27.1,19.7-38,28.4
	C459.6,421.4,508.8,325.5,498.8,232.4z M96.5,73.2c8.3-9,37.6-26.4,35.4-26.9C51,93.1,2.9,189.7,14.1,282.6
	c3.6,33.5,14.3,66.2,31.2,95.4l0,0c-6-14.8-16-32.2-20.5-49.3C-4.5,239.2,25,134.4,96.5,73.2z M488.1,230.6
	c-3.5-32.1-13.7-63.4-29.8-91.4c5.6,14.2,15.3,30.9,19.6,47.2c27.9,85.7-0.2,185.9-68.6,244.5c-10.8,10.4-26,18.8-36.3,27.3l0,0
	C451.8,413.8,499,320.5,488.1,230.6z M103.4,81.1c7.9-8.7,35.9-25.2,33.9-25.8c-78.3,45.3-124.4,139.2-112.4,229
	c3.8,31.1,13.9,61.3,29.5,88.4c-5.7-14.2-15.3-30.8-19.6-47.1C6.7,239.9,34.9,139.6,103.4,81.1z M54.3,372.7
	C54.3,372.7,54.3,372.7,54.3,372.7C54.3,372.7,54.3,372.7,54.3,372.7L54.3,372.7z M367.7,449.2C367.7,449.2,367.7,449.2,367.7,449.2
	C367.7,449.1,367.7,449.2,367.7,449.2L367.7,449.2z M477.4,229.1c-3.6-29.7-13.2-58.7-28.2-84.6c5.2,13.5,14.6,29.5,18.7,45.1
	c27.3,83.6-1.5,181.6-69.7,237c-9.1,8.5-22.4,15.4-30.6,22.5C443.8,406.3,489,315.7,477.4,229.1z M44.6,322.4
	c-27-82.7,0.8-179.6,67.6-235.3c7.2-7.6,31.2-21.6,30.3-22.9C66.9,108,22.8,199.2,35.5,285.7c3.9,28.7,13.4,56.7,27.8,81.8
	C58,354,48.7,338,44.6,322.4z M63.4,367.5C63.4,367.5,63.4,367.5,63.4,367.5C63.4,367.5,63.4,367.5,63.4,367.5L63.4,367.5z
	 M466.7,227.8c-3.7-27.4-12.7-54.1-26.5-78c8.2,18.7,19.4,41,23,62.9c18.7,84.4-20.6,177.7-94.5,222.6c-0.7,1.7-7.8,2.7-6.2,4.8l0,0
	C435.8,398.9,478.9,311.1,466.7,227.8z M122.3,91c-65.9,52.3-94.7,145.8-69.4,226.1c4.7,15.7,11.3,30.9,19.5,45.1l0,0
	c-8.3-18.7-19.4-41-23-62.9C30.5,215,69.9,121.7,143.9,76.8C159.5,65.7,127,85.7,122.3,91z M452.8,209.8
	c-4.8-18.7-11.6-40-22.5-54.4c45.2,75.7,31.9,180.1-31,241.9c-12.1,13.2-29.1,23.9-42.1,33.8C433,388.7,473.9,294.1,452.8,209.8z
	 M357.2,431.1C357.2,431.1,357.2,431.1,357.2,431.1C357.2,431.1,357.2,431.1,357.2,431.1L357.2,431.1z M90.5,140.5
	c-44.5,62.6-48.2,150.5-9.2,216.6l0,0c-11.9-24.9-23.8-54.6-25.4-84c-7.3-76,33.3-153.8,99.8-191.3
	C130.7,93.5,107.4,116.8,90.5,140.5z M90.5,351.9C90.5,351.9,90.5,351.9,90.5,351.9C90.5,351.9,90.5,351.9,90.5,351.9L90.5,351.9z
	 M99.2,146.4C57,205.8,53.4,289.1,90.5,351.9h0c0,0,0,0,0,0c0,0,0,0,0,0c0,0,0,0,0,0c0,0,0,0,0,0c0,0,0,0,0,0h0
	c-11.1-23.5-22.5-51.8-24-79.7C59.6,200.1,98,126.3,161,90.8C137.2,101.9,115.1,124,99.2,146.4z M441.6,207.6
	c-4.6-16-10.7-35-20.3-47c42.9,71.7,30.3,170.7-29.4,229.3c-11.4,12.6-27.8,22.7-39.9,32.1v0C425.4,381.2,464.1,288.6,441.6,207.6z
	 M430.4,206c-4.4-13.6-9.7-30.2-18-40.1c41.4,69.1,27.9,164.8-30.9,219.8c-10,10.6-24.5,19.1-34.5,27.2
	C417.6,373.6,454,283.5,430.4,206z M346.9,413L346.9,413C346.9,413,346.9,413,346.9,413C346.9,413,346.9,413,346.9,413z
	 M107.7,152.4c-39.9,56.1-43.2,134.9-8.2,194.2c-10.4-22.2-21.3-49-22.6-75.3c-6.6-68.1,29.8-137.9,89.4-171.4
	C143.8,110.1,122.8,131.3,107.7,152.4z M99.5,346.6C99.5,346.6,99.5,346.6,99.5,346.6C99.5,346.6,99.5,346.6,99.5,346.6L99.5,346.6z
	 M419.2,204.9c-0.9-9.6-23.3-49.7-10.1-22.8c34.8,69,14,160-47.4,207c-5.8,5.5-15.8,9.9-20.1,14.8
	C409.7,366.2,443.7,278.7,419.2,204.9z M341.7,403.9C341.7,403.9,341.7,403.9,341.7,403.9C341.7,403.9,341.7,403.9,341.7,403.9
	L341.7,403.9z M108.6,341.4C108.6,341.4,108.6,341.4,108.6,341.4C108.6,341.4,108.6,341.4,108.6,341.4L108.6,341.4z M116.3,158.4
	c-37.6,53-40.8,127-7.8,183c-9.6-20.9-20-46.2-21.3-71c-6.2-64.2,28.1-129.9,84.2-161.5C150.4,118.3,130.5,138.5,116.3,158.4z
	 M409.2,208c-0.8-9.1-21.9-46.7-9.5-21.4c32.7,64.8,13.2,150.2-44.4,194.3c-5.4,5.2-14.9,9.3-18.8,14l0,0
	C400.3,359.5,432.2,277.3,409.2,208z M124.9,164.3c-35.3,49.7-38.3,119.3-7.3,171.8c-9-19.6-18.8-43.3-19.9-66.6
	C91.9,209.3,124,147.6,176.7,118C156.9,126.6,138.2,145.7,124.9,164.3z M117.6,336.2C117.6,336.2,117.6,336.2,117.6,336.2
	C117.6,336.2,117.6,336.2,117.6,336.2L117.6,336.2z M398.1,207.7c-1.3-8.4-19.2-39.4-7.8-16.5c31.8,62.8,10.6,146-47.3,185.9
	c-2.7,3-11.1,5.6-11.8,8.7l0,0C392,352.2,421.7,273.1,398.1,207.7z M133.4,170.3c-33,46.5-35.8,111.5-6.8,160.7l0,0
	c-8.1-18.3-17.6-40.6-18.6-62.4c-5.4-56.3,24.7-113.9,73.9-141.6C163.4,134.9,145.9,152.9,133.4,170.3z M387.1,207.9
	c-3.4-11.5-16.5-31.8-4.7-9.1c28.2,59.1,6.6,136-48.2,171.8c-1.1,2.3-9.4,3.7-8.1,6.3C383.6,345,411,269.3,387.1,207.9z M142,176.3
	c-30.7,43.2-33.3,103.8-6.3,149.5l0,0c-7.4-16.9-16.3-37.7-17.2-58c-5-52.3,22.9-105.9,68.7-131.7
	C169.9,143.3,153.5,160.1,142,176.3z M376.2,208.5c-3.9-11.4-13.3-24.1-3.3-5.4c26.5,55.6,5.2,128.2-47.2,160.5
	c0.1,1.9-7.3,1.7-4.9,4.1l0,0C375.1,337.8,400.1,265.8,376.2,208.5z M150.5,182.2c-28.4,40-30.8,96-5.9,138.3
	c-6.7-15.6-15.1-34.9-15.9-53.7c-4.6-48.4,21.2-97.9,63.5-121.8C176.5,151.4,161.2,167.4,150.5,182.2z M144.6,320.5
	C144.6,320.5,144.6,320.5,144.6,320.5C144.6,320.5,144.6,320.5,144.6,320.5L144.6,320.5z M365.4,209.7c-4.4-11.2-10-16.8-2-2.2
	c24.9,52,4,120-45.8,149l-2.5,1.5l0.5,0.8l0,0C366.4,330.7,389.2,262.7,365.4,209.7z M159.1,188.2c-26.1,36.8-28.3,88.2-5.4,127.1
	l0,0l0,0c0,0,0,0,0,0c0,0,0,0,0,0l0,0c28.4,51.9,98.3,74.4,151.6,48.7c24.4-13.3-17.7,8.5-27.6,7.7c-47.7,9.5-99.5-14.5-123.2-56.9
	l-0.8,0.5c-5.8-14.3-13.9-32.1-14.5-49.3c-4.3-44.5,19.5-90,58.3-111.9C183,159.7,168.9,174.6,159.1,188.2z M153.7,315.3
	C153.7,315.3,153.7,315.3,153.7,315.3C153.7,315.3,153.7,315.3,153.7,315.3L153.7,315.3z M310.3,349.7c47.2-26,67.7-89.7,44.3-138.4
	c-12.2-22.3,7.7,16.2,6.9,25.3c8.6,43.4-13.2,90.6-51.8,112.3L310.3,349.7c-23.6,11.5-54.6,18.2-81.7,9.9
	c-27.2-7.1-51.1-25.5-65.1-49.9l-0.8,0.5l0,0C190.3,360.9,261.1,379.9,310.3,349.7L310.3,349.7L310.3,349.7L310.3,349.7z
	 M162.7,310.1C162.7,310.1,162.7,310.1,162.7,310.1C162.7,310.1,162.7,310.1,162.7,310.1L162.7,310.1z M167.6,194.2
	c-23.8,33.5-25.8,80.5-4.9,115.9c-5.1-13-12.7-29.3-13.1-45c-3.9-40.5,17.7-82,53.2-102C189.5,168.1,176.6,181.8,167.6,194.2z
	 M340.8,207.1c11.8,24.1,17.1,56.3,5.8,83.1c-7.2,21.4-24.8,38.5-41.6,50.4l0,0C350.9,315.7,368.1,251.7,340.8,207.1z M171.8,304.9
	c-10.2-21.3-16.5-49.4-8.8-73.9c5.7-25.1,25.2-46.2,44.6-59.5C161.3,196.9,144.5,259.6,171.8,304.9L171.8,304.9z"/>
</svg>
