<svg xmlns="http://www.w3.org/2000/svg" viewBox="0 0 512 512">
<circle class="circle" cx="256" cy="256" r="242.7"/>
<polygon class="flair" points="634.9,109.5 316.7,146.7 314.2,134.8 601.6,23.6 "/>
<polygon class="flair" points="39.9,-57.7 162.3,238.3 151.5,244 -33.7,-2.4 "/>
<path class="people" d="M293.3,514.5c-5.7-5.1-11.7-9.8-17.8-14.3c-2.7-2-4.4-3.8-4.8-7.3c-0.7-6.7-1.8-7.1-8.4-8.3
	c-3-0.5-6.6-1.4-8.3-3.5c-3.8-4.4-6.7-9.7-11.9-12.8c-0.5-0.3-0.8-0.9-1.2-1.5c-7.5-10.9-17-19.8-27.5-27.7c-4-3-8.6-5.2-12.8-8
	c-5.5-3.7-8.9-8.7-9.5-15.5c-0.5-6-1.4-12-2.1-18c-2.2-18.7-4.5-37.4-6.6-56.1c-0.4-3.8-0.9-7.9,0.1-11.5c4.1-14.6,8.7-29.1,13.2-44
	c-0.2,0,0.4-0.1,1-0.1c11.7,0.5,20.3-4,25.5-14.8c8.9-18.3,16.4-36.9,20-57c2-11-1-19.7-10.2-26.4c-4.9-3.6-10.2-7-13.2-12.6
	c-2.8-5.2-5.3-10.4-5.5-16.4c4.6-0.6,5.8-1.6,5.1-5.9c-0.7-4.1,0.2-7.2,2.5-10.5c1.6-2.4,2.4-5.5,3.5-8.3c0.3-0.9,0.5-2,0.5-2.9
	c-0.3-5-1.1-10-1.1-15.1c0-7-2.1-10.6-7.9-13.4c-2.1-1-3.9-2.7-5.8-4.1c-1.4-0.7-3.5-0.5-5.3-1.1c-2.8-1.1-5.3-2.7-7.9-4.1
	c-0.6-0.3-1.4-0.1-2,0c-1.7,0.2-3.5,1.2-5,0.8c-4.9-1.3-9.1,0-13.2,2.4c-1.3,0.8-3.1,1.9-4.1,1.5c-4.9-2.2-8.3,0.1-12.2,2.6
	c-2.5,1.6-2.5,4.4-4.2,5.6c-2.6,1.9-1.8,3.7-1.3,5.9c0.1,0.7,0.3,1.5,0.3,2.2c-0.3,3.6,0.8,5.6,4.9,4.6c-0.8,4.4-1.8,8.5-2.2,12.8
	c-0.2,1.6,0.4,4.1,1.5,4.9c2.2,1.6,2.3,3.3,1.8,5.6c-0.6,2.3-1.2,4.6-1.9,6.9c-1.6,5.5-1.6,5.5,3,7.3c1,2.9,1.9,5.4,2.7,7.9
	c0.4,1.4,0.9,2.9,0.9,4.3c0,5.4,2.3,7.3,7.7,6.1c3.2-0.7,6.5-1.5,10.1-2.4c-0.2,2-0.3,3.4-0.5,5c-3.1,0.4-6,0.7-8.9,1.1
	c-6.2,0.7-12.7,0.7-18.7,2.3c-25.2,6.7-50.3,13.9-75.5,21c-2.1,0.6-3.5,0.1-4.9-1.5c-3.2-3.5-6.5-7-10-10.3
	c-4.4-4.1-7.8-8.5-8.9-14.7c-1-5.5-3-6.1-8.3-3.6c-13.5-15-27-30.1-40.4-45.1c-0.7-0.8-0.9-2-1.2-3.1c-2.7-8.4-6.2-16.3-13.5-21.7
	c-6.7-5-18.3-5.8-23.3-1.9c0,2,0,4,0,6c2.7,6.8,5.3,13.8,8.3,20.4c0.8,1.7,3.2,3.1,5.1,3.7c4.2,1.3,8.6,1.9,12.8,3
	c1.2,0.3,2.7,1,3.4,1.9c12.7,15.9,25.4,31.8,38,47.8c0.6,0.7,1,2,0.8,2.9c-2.4,11.8,6,21.8,16.7,23.7c3.4,0.6,4.9,2,6.5,4.2
	c0.8,1,1.6,2,2.2,3c1.1,2,2.1,4.1,3.1,6.1c-2.7,0.5-5.4,1.1-8.1,1.4c-1.2,0.1-2.4-0.6-3.7-0.7c-2.9-0.3-5.8-0.8-8.6-0.5
	c-6.9,0.7-12.4,4-15.3,10.6c-2.8,6.3-2,12.8,2.7,17.6c3.5,3.7,8.2,6.5,12.9,8.7c8.2,3.8,16.8,6.6,25.1,10.2
	c7.7,3.3,13.4,8.8,15.9,17.1c0.7,2.4,1.5,4.8,2.6,7.1c1,2.2,0.8,3.9-1,5.7c-7.1,6.7-13.6,14.3-21.3,20.2
	c-24.4,18.8-46.1,40.3-64.8,64.9c-4.7,6.1-6.2,11.9-4,19.5c7.8,25.8,16.3,51.5,20.6,78.3c0.7,4.2,2.7,7.4,6.3,9.8
	c1.3,0.8,2.5,1.6,1.3,3.9c-5.7,10.9-14.2,18.4-25.4,23c-2.8,1.1-5.4,2.6-8,4.1c-2.9,1.6-4,4.3-3.9,7.6c0.1,4.5,0.8,5.2,5.3,4.7
	c1.6-0.2,3.2-0.3,4.9-0.5c20-1.9,40-3.7,60-5.7c8.1-0.8,9.5-3.2,6.4-10.6c-0.9-2.1-0.5-3.2,0.8-4.9c4.7-6.2,4.3-9.8-1.3-15
	c-0.4-0.3-0.7-0.7-1.1-1c-2.4-2-2.9-4-1.6-7.2c3.3-8.5,4.2-16.8-3.4-23.9c-3.9-3.7-5.4-8.4-6.5-13.7c-2.7-13.7-5.6-27.3-8.9-40.9
	c-2-8.2-2.4-8.2,5-12.8c3.6-2.2,7.3-4.4,11.1-6.5c12.5-7,25-14,37.5-21c6.2-3.5,12.4-7,19.1-10.8c0.6,0.8,1,1.6,1.6,2.3
	c11.9,13.5,21.7,28.1,28.1,45.1c5.3,13.9,11.3,27.9,21.3,39.2c12.7,14.3,26,27.9,39.1,41.9c11.1,11.9,24.4,20.1,40,24.5
	c5.8,1.6,9.5,5.2,13.2,9.3c8.5,9.5,19.6,13.1,31.7,14.4c3.8,0.4,5.9-1.7,6.4-5.4C299.4,525.8,298.6,519.3,293.3,514.5z M122.7,221.6
	c-2.8-3.1-5-6.7-8.1-8.9c-3.1-2.2-7.2-3.1-10.9-4.5c14.1-4.3,28.6-8.8,43.1-13.3C139.4,204.6,135.1,217,122.7,221.6z"/>
<polygon class="flair" points="101.8,577.4 277.7,214.4 292.1,219.8 215.5,600.3 "/>
<path class="people" d="M596.9,618.7c-3.4-1.6-6.5-0.7-8.7,2.2c-1.6,2.2-3.5,2.6-5.9,2.3c-22.8-2.1-45.5-4.2-68.3-6.5
	c-1.6-0.2-3.5-1.6-4.6-2.9c-2.5-2.9-4.8-6.1-7-9.3c-1.1-1.7-2.3-3.6-2.7-5.6c-5.4-28.9-14.7-98-20-126.8
	c-2.2-11.8-4.4-23.6-6.6-35.5c-7.5-40.9-15-81.8-22.5-122.7c-1.3-7.1-2.6-14.2-3.9-21.7c6.8,4.8,7.5,6,11,15.2
	c1.2,3.2,1.6,5.8-0.6,8.7c-0.7,1-1.3,2.7-1,3.7c3.5,9.1,7.2,18.1,10.9,27.4c5-2.6,9.6-5.1,14.4-7.6c-3.3-8.5-6.5-16.7-9.7-24.8
	c-0.3-0.7-1-1.5-1.7-1.8c-4.9-2.4-6.3-5.5-5.2-10.7c0.3-1.4-0.6-3.1-1-4.6c-0.5-1.7-1.2-3.4-1.7-5.1c-0.5-1.7-1-3.3-1.3-5
	c-0.2-0.9-0.4-1.9-0.1-2.7c2.3-6.8,1.1-9.3-5.8-11c0.5-7.3-0.4-14.4-4.5-20.8c-0.8-1.2-0.8-2.9-1.2-4.3c-10-43.1-19.9-86.2-30-129.2
	c-2.7-11.5-6.1-22.8-8.7-34.3c-2-8.8-7.7-11.8-15.3-6.1c-1,0.7-2.2,1.3-3.2,1.9c-2.7,1.7-5.1,3.1-8.6,1.7c-1.3-0.5-3.5,1-5.3,1.6
	c-0.5,0.2-0.9,0.7-1.5,1c-3.2,1.6-8,2.4-9.4,5c-2.4,4.4-5.3,8-8.7,11.4c-1,1-2,2.1-3.2,2.9c-3,2.1-6.5,3.7-9.2,6.1
	c-2.4,2.1-2.9,5.1-0.7,8.1c2.2,3,5,4.1,8.2,2.7c3-1.3,5.7-3.4,8.6-5.1c0.8-0.4,1.7-1,2.5-0.9c9.3,0.9,11.8,3.2,13.4,12.5
	c0.3,1.7,0.4,3.5,0.3,5.2c-0.6,17.1-1.3,34.2-1.7,51.3c-0.1,2.7-1.2,3.6-3.4,4.4c-14.4,4.7-28,2.5-41.6-3.6
	c-7.3-3.3-10.4-7.5-10.2-15.5c0.2-7.3-0.5-7.4,6.4-10.4c2.9-1.3,3.9-3,3.3-6.1c-0.5-2.7-1.5-5.7,1.1-8.2c0.4-0.4-0.4-2-0.7-3
	c-2.1-6.8,0.8-13.4,0.7-20.1c0-0.4,0.6-0.7,0.9-1.1c2.6-3.6,2-6.6-2.2-7.9c-4.6-1.4-7-4-7-8.8c0-6.1-3.7-8.8-9.1-10.3
	c-11.1-3-21.6-1.7-32,2.8c-4.7,2-8.1,5.3-10.6,9.8c-6.2,11-7.6,23.1-7.1,35.4c0.2,5.7,1.5,11.3,6.6,14.9c4.3,3,4.8,9.7,1.3,13.8
	c-2.3,2.6-5.2,5.4-5.9,8.5c-3.4,15.7-3.8,31.4,6.4,45.2c8.5,11.5,17.6,22.6,26.7,33.6c4.3,5.2,7.3,10.8,8.1,17.5
	c0.6,5.6,1.2,11.2,1.7,16.9c0.9,9.4,1,18.9,2.7,28.1c6.4,33.4,13.3,66.7,20.2,100c1.4,6.6,0.3,12.3-4.6,16.9
	c-3.7,3.4-7.2,7.1-11.3,9.9c-5.7,4-9.5,9.3-12,15.6c-6.2,15.9-12.7,31.7-18.4,47.8c-4.4,12.3-8.1,24.8-11.4,37.4
	c-1.1,4.1-2.4,7.6-4.9,11c-3.8,5.3-7.3,10.8-10.9,16.3c-1.9,3-1.9,5.9,0.2,8.7c3.3,4.4,6.7,8.7,10,13.1c1.5-0.9,2.5-1.4,3.8-2.2
	c2.9,4.5,5.6,8.9,8.6,13.1c5,6.9,10.7,12.6,20.5,11.4c3.1-0.4,6.3,0.1,9.4,0.1c7.3,0,14.5,0,22.1,0c1.3-5.1,1.2-10.3-0.7-15.4
	c-0.6-1.5-2.4-2.7-3.8-3.7c-2.7-1.6-5.8-2.6-8.3-4.4c-8.6-6.6-12.4-16.2-15.5-26.1c-0.2-0.6-0.1-1.3,0.1-1.8
	c2.4-7.6,4.8-15.2,7.2-22.9c4.4,5.3,8.5,10.2,12.6,15.1c0.6,0.7,1.6,1.7,2.3,1.6c3-0.3,3.2,1.8,4.1,3.8c3.1,7.7,6.3,15.2,9.6,22.8
	c1,2.3,2.9,3,5.5,3c8-0.1,16.1-0.1,24.1,0.2c3.3,0.1,4.8-1.9,5.3-4.2c0.4-1.9-0.1-4.6-1.3-6c-1.9-2.1-4.6-3.5-7.1-4.8
	c-9.3-5-9.3-5-7.7-15.5c1.8-12,5-23.4,15.2-31.3c3.9-3.1,4.8-7.3,4.8-12.1c0-2.7,0.6-5.9,2.1-8.1c5.6-8.8,11.5-17.4,17.7-25.8
	c8.7-12,17.6-23.8,26.4-35.7c4.9-6.7,7.1-13.8,4.6-22.3c-2.5-8.5-4.1-17.4-6-26.1c-5.5-25.1-11.6-49.9-23.3-73
	c-2.3-4.5-4.6-9-6.2-13.7c-2.7-7.8-4.8-15.9-7.2-23.8c-1-3.5-2-7.1-3.2-11.3c8.4,2.6,15.9,4.8,23.4,7.2c1.9,0.6,4,1.3,5.2,2.7
	c4.8,5.4,10.4,8.5,17.9,7.6c0.2,0,0.4,0.2,0.6,0.4c0.8,2.3,0.1,3.7-2.3,4.6c-2.1,0.8-4.5,1.7-4.7,5.4c3-0.5,5.7-0.9,8.7-1.3
	c1.7,8.9,3.4,17.9,5.1,26.9c7.4,38,14.8,75.9,22.1,113.9c3.1,16,5.8,32,8.8,48c4,21.4,12.2,82.9,16.2,104.2
	c0.7,3.6,2.5,7.4-1.7,10.4c-1.1,0.8-1,3.2-1.3,4.9c-0.2,1.2,0,2.4,0,3.8c-6.9,1.3-13.4,2.5-19.9,3.7c-0.4-0.7-0.7-1.1-0.9-1.6
	c-2.1-3.6-5.2-4.9-8.4-3.2c-2.8,1.5-3.9,4.8-2.7,7.8c1.4,3.3,4.5,4.5,8.5,3.1c0.6-0.2,1.2-0.7,1.7-0.6c6.6,1.2,13.1,2.5,20.4,3.9
	c-14.2,12-27.7,23.3-41.2,34.5c-0.9,0.7-2.2,1-3.4,1.3c-3.4,0.8-6,3.5-5.3,6.7c0.5,2.3,2.5,4.4,3.8,6.5c1.8,0,3.5,0,5.3,0
	c1.2-1.7,3.2-3.3,3.4-5.1c0.3-2.8,1.9-4.1,3.9-5.5c15-10.5,30.1-20.9,45-31.7c4.7-3.4,9.3-5.2,15.4-5c22.5,0.7,45,0.6,67.5,0.9
	c5.9,0.1,11.7,0.6,17.6,0.6c3.7,0,6-2.4,6.6-6.1C601.5,623,600.1,620.2,596.9,618.7z M390.1,93c6.2-5.1,9.3-4.7,12,2.8
	c3.1,8.5,5.2,17.3,7.6,26c5,18.7,10.1,37.3,14.8,56.1c1,4.1,0.8,8.6,1.2,12.9c-0.3,0.1-0.7,0.2-1,0.3c-0.8-1.8-1.7-3.6-2.5-5.5
	c-8.7-21.7-17.5-43.3-25.9-65.1c-1.4-3.5-1.6-7.6-1.6-11.4c-0.1-5.7-0.5-11.1-4.9-15.2C390,93.2,390,93.1,390.1,93z M390.3,429.3
	c0.4,1.9-1,4.5-2.2,6.5c-4.5,7.5-9.9,14.6-13.9,22.4c-8,15.8-15.2,31.9-22.8,47.9c-4.1,8.6-8.4,17-17.8,21c-4.7,2-9.3,4-14,6
	c-0.2-0.3-0.4-0.5-0.6-0.8c3.8-8.1,8.1-16.1,11.4-24.4c6.5-16.2,18.2-28.7,28.7-42.1c3.6-4.6,7.1-9.5,10.7-14.1
	c3-3.8,4.3-7.9,4.2-12.9c-0.2-14.7,0-29.4,0.1-44.1c0-0.8,0-1.7,0.9-2.9c3,5.4,6.5,10.6,8.8,16.2
	C386.6,414.9,388.6,422.1,390.3,429.3z M433.4,266.7c-1.4,1.5-2.3,4.1-2.3,6.1c0,3.5-2.3,3.7-4.2,3c-4.7-1.7-9.6-3.4-13.5-6.3
	c-12.7-9.4-24.9-19.5-37.7-28.8c-5.7-4.1-6.8-10.1-9.1-16c7.4-3.3,14.6-6.4,21.7-9.9c3.7-1.8,7.2-4,10.3-6.7c3.6-3.2,5-7.6,4.5-12.6
	c-1.5-14.2-2.8-28.4-4.1-42.7c0.2,0,0.3-0.1,0.5-0.1c8.1,21.8,16.3,43.7,24.4,65.5c3.9,10.5,8.4,20.8,11.4,31.5
	C436.8,255,438.3,261.4,433.4,266.7z"/>
</svg>
